<svg xmlns="http://www.w3.org/2000/svg" width="33.449" height="42.093" viewBox="0 0 33.449 42.093">
  <g id="Group_16356" data-name="Group 16356" transform="translate(-225.237 -584.862)">
    <path id="Path_11362" data-name="Path 11362" d="M225.237,626.955V584.862h33.449v42.093l-6.142-3.949-5.291,3.4-5.292-3.4-5.292,3.4-5.291-3.4Zm6.142-5.971,5.291,3.4,5.292-3.4,5.292,3.4,5.291-3.4,4.441,2.855V586.563H226.938v37.276Z" transform="translate(0)" fill="#fff"/>
    <path id="Path_11363" data-name="Path 11363" d="M250.251,602.822H231.22v9.27h10.909v3.983H251.1V602.822Zm-.85,3.692H243.83v-1.991H249.4Zm-7.271-1.991v1.991h-9.208v-1.991Zm-9.208,3.692h9.208v2.177h-9.208Zm16.479,6.16H243.83v-2.283H249.4Zm-5.571-3.983v-2.177H249.4v2.177Z" transform="translate(0.801 2.404)" fill="#fff"/>
    <path id="Path_11364" data-name="Path 11364" d="M241.229,594.691v-3.107a1.613,1.613,0,0,1,.764,1.367h1.7a3.313,3.313,0,0,0-2.465-3.192v-1.525h-1.7v1.525a3.3,3.3,0,0,0,0,6.382v3.107a1.611,1.611,0,0,1-.764-1.366h-1.7a3.312,3.312,0,0,0,2.465,3.191V602.6h1.7v-1.525a3.3,3.3,0,0,0,0-6.382Zm-2.465-1.739a1.613,1.613,0,0,1,.764-1.367v2.734A1.611,1.611,0,0,1,238.764,592.952Zm2.465,6.3v-2.734a1.6,1.6,0,0,1,0,2.734Z" transform="translate(1.583 0.451)" fill="#ed6d7e"/>
  </g>
</svg>
