<svg xmlns="http://www.w3.org/2000/svg" width="38.826" height="42.127" viewBox="0 0 38.826 42.127">
  <g id="Group_16355" data-name="Group 16355" transform="translate(-223.031 -415.36)">
    <g id="Group_16354" data-name="Group 16354" transform="translate(233.614 435.81)">
      <path id="Path_11359" data-name="Path 11359" d="M247.858,454.822c-.236,0-.474-.009-.713-.03l-.115-.017-10.862-2.422a2.716,2.716,0,0,1-2.088-3.327,2.727,2.727,0,0,1,3.324-2.081l1.43.328-6.175-9.853a2.794,2.794,0,0,1,4.734-2.968l2.218,3.542a2.78,2.78,0,0,1,2.842-1.115,2.789,2.789,0,0,1,4.713-1.259,2.794,2.794,0,0,1,4.739-.008l4,6.382a7.782,7.782,0,0,1-2.471,10.77l-1.39.873A7.836,7.836,0,0,1,247.858,454.822Zm-.511-1.743a6.222,6.222,0,0,0,3.781-.9l1.39-.873a6.057,6.057,0,0,0,1.926-8.392l-4-6.382a1.066,1.066,0,0,0-1.944.329,1.056,1.056,0,0,0,.135.8l1.48,2.363-1.456.924-.542-.683-2.051-3.272a1.066,1.066,0,0,0-1.946.33,1.062,1.062,0,0,0,.135.8l2.05,3.271-1.46.916-2.051-3.271a1.069,1.069,0,0,0-1.823,1.117l2.063,3.291-1.461.916-2.051-3.273-.018-.031-3.571-5.7a1.068,1.068,0,0,0-1.81,1.135l8.386,13.381-5.489-1.258a1,1,0,0,0-1.257.786,1,1,0,0,0,.789,1.258Z" transform="translate(-232.235 -433.145)" fill="#ed6d7e"/>
    </g>
    <rect id="Rectangle_677" data-name="Rectangle 677" width="15.766" height="1.725" transform="translate(228.592 426.258)" fill="#fff"/>
    <circle id="Ellipse_1561" data-name="Ellipse 1561" cx="0.807" cy="0.807" r="0.807" transform="translate(226.4 418.639)" fill="#fff"/>
    <circle id="Ellipse_1562" data-name="Ellipse 1562" cx="0.807" cy="0.807" r="0.807" transform="translate(230.098 418.639)" fill="#fff"/>
    <circle id="Ellipse_1563" data-name="Ellipse 1563" cx="0.807" cy="0.807" r="0.807" transform="translate(233.796 418.639)" fill="#fff"/>
    <path id="Path_11360" data-name="Path 11360" d="M223.031,415.36v32.373H234.4c.154-.126.3-.266.465-.378l-.843-1.346h-9.264V423.538h35.376v19.738a11.021,11.021,0,0,1,1.343,3.594h.382V415.36Zm37.1,6.453H224.756v-4.728h35.376Z" transform="translate(0 0)" fill="#fff"/>
    <path id="Path_11361" data-name="Path 11361" d="M229.8,437.45h-.207v-6.942h24.256v2.557a5.894,5.894,0,0,1,1.391,1.519l.333.53v-6.331H227.867v10.391h2.48A5.872,5.872,0,0,1,229.8,437.45Z" transform="translate(0.725 2.012)" fill="#fff"/>
  </g>
</svg>
