<svg xmlns="http://www.w3.org/2000/svg" width="43.343" height="42.128" viewBox="0 0 43.343 42.128">
  <g id="Group_16353" data-name="Group 16353" transform="translate(-220.991 -246.754)">
    <rect id="Rectangle_673" data-name="Rectangle 673" width="12.862" height="1.731" transform="translate(228.633 258.38)" fill="#fff"/>
    <path id="Path_11357" data-name="Path 11357" d="M255.627,261.554v-3.071H242.337v3.071h-6.224V280.77H262V261.554Zm-11.558-1.34H253.9v1.34h-9.827Zm16.2,3.071v3.972h-8.789v-1.694h-4.848v1.694h-8.79v-3.972Zm-10.52,4.008v4.625h-1.385v-4.625Zm-11.907,11.745V268.988h8.79v4.662h4.848v-4.662h8.789v10.051Z" transform="translate(2.332 1.808)" fill="#ed6d7e"/>
    <path id="Path_11358" data-name="Path 11358" d="M253.308,285.752v1.4H222.722V248.485h30.586v8.632h1.731V246.754H220.991v42.128h34.048v-3.129Z" transform="translate(0 0)" fill="#fff"/>
    <rect id="Rectangle_674" data-name="Rectangle 674" width="6.638" height="1.731" transform="translate(228.633 264.009)" fill="#fff"/>
    <rect id="Rectangle_675" data-name="Rectangle 675" width="6.637" height="1.731" transform="translate(228.634 269.639)" fill="#fff"/>
    <rect id="Rectangle_676" data-name="Rectangle 676" width="6.637" height="1.731" transform="translate(228.634 275.268)" fill="#fff"/>
  </g>
</svg>
