<svg xmlns="http://www.w3.org/2000/svg" width="42.32" height="42.31" viewBox="0 0 42.32 42.31">
  <g id="Group_16364" data-name="Group 16364" transform="translate(-611.051 -412.644)">
    <path id="Path_11379" data-name="Path 11379" d="M630.873,443.862a11.4,11.4,0,1,1,8.063-19.468h0a11.4,11.4,0,0,1-8.063,19.468Zm0-21.069a9.665,9.665,0,1,0,6.835,2.831h0A9.605,9.605,0,0,0,630.873,422.792Z" transform="translate(1.338 1.336)" fill="#fff"/>
    <g id="Group_16363" data-name="Group 16363" transform="translate(613.011 412.644)">
      <path id="Path_11380" data-name="Path 11380" d="M640.791,414.592a21.07,21.07,0,0,0-17.7,0H612.742V428.98l1.655-3.5a19.388,19.388,0,0,1,35.092,0l1.655,3.493V414.592Zm-23.819,4.231a20.766,20.766,0,0,0-2.491,3.016V416.33h5.509A20.683,20.683,0,0,0,616.972,418.823Zm32.434,3.018a20.677,20.677,0,0,0-5.51-5.51h5.51Z" transform="translate(-612.742 -412.644)" fill="#fff"/>
      <path id="Path_11381" data-name="Path 11381" d="M645.683,443.975a19.386,19.386,0,0,1-31.286-5.43l-1.655-3.5v14.386h10.352a20.947,20.947,0,0,0,17.7,0h10.353V435.052l-1.655,3.493A19.409,19.409,0,0,1,645.683,443.975Zm-31.2,3.722v-5.509a20.61,20.61,0,0,0,5.51,5.509Zm34.925,0H643.9a20.678,20.678,0,0,0,5.51-5.51Z" transform="translate(-612.742 -409.086)" fill="#fff"/>
    </g>
    <path id="Path_11382" data-name="Path 11382" d="M617.856,448.614,617.24,448a21.238,21.238,0,0,1,0-29.94l.615-.614,8.135,8.136-.614.614a9.675,9.675,0,0,0,0,13.668l.614.615Zm.014-28.7a19.469,19.469,0,0,0-3.2,4.8h0a19.509,19.509,0,0,0,3.2,21.422l5.685-5.685a11.423,11.423,0,0,1,0-14.851Z" transform="translate(0 0.763)" fill="#ed6d7e"/>
    <path id="Path_11383" data-name="Path 11383" d="M642.814,448.614l-8.136-8.135.615-.615a9.664,9.664,0,0,0,0-13.668l-.615-.614,8.136-8.136.614.614a21.1,21.1,0,0,1,4.147,5.916h0A21.235,21.235,0,0,1,643.428,448Zm-5.7-8.158,5.685,5.685a19.5,19.5,0,0,0,3.206-21.422h0a19.519,19.519,0,0,0-3.206-4.8l-5.685,5.686a11.406,11.406,0,0,1,0,14.852Z" transform="translate(3.752 0.763)" fill="#ed6d7e"/>
  </g>
</svg>
