<svg xmlns="http://www.w3.org/2000/svg" width="22.931" height="21.351" viewBox="0 0 22.931 21.351">
  <g id="Group_16205_hover" data-name="Group 16205_hover" transform="translate(-1966.575 -432.466)">
    <path id="Path_11196" data-name="Path 11196" d="M1969.707,459.764a2.632,2.632,0,1,0,0,5.264,2.661,2.661,0,0,0,.461-.047V459.81A2.608,2.608,0,0,0,1969.707,459.764Z" transform="translate(0 -11.711)" fill="none" stroke="#fff" stroke-miterlimit="10" stroke-width="1"/>
    <path id="Path_11197" data-name="Path 11197" d="M1985.462,448.979" transform="translate(-8.096 -6.962)" fill="none" stroke="#16a1eb" stroke-miterlimit="10" stroke-width="1"/>
    <path id="Path_11198" data-name="Path 11198" d="M1998.324,462.909h2.239v1.677h2.2v1.826h-4.442" transform="translate(-13.76 -13.095)" fill="none" stroke="#fff" stroke-miterlimit="10" stroke-width="1"/>
    <rect id="Rectangle_642" data-name="Rectangle 642" width="14.397" height="11.299" transform="translate(1970.167 442.017)" fill="none" stroke="#fff" stroke-miterlimit="10" stroke-width="1"/>
    <rect id="Rectangle_643" data-name="Rectangle 643" width="3.005" height="5.437" transform="translate(1975.863 447.88)" fill="none" stroke="#fff" stroke-miterlimit="10" stroke-width="1"/>
    <path id="Path_11199" data-name="Path 11199" d="M1987.374,442.017h-17.933l3.429-3.384V435.15h1.518v1.986l4.02-3.967Z" transform="translate(-1.042)" fill="none" stroke="#ed6d7e" stroke-miterlimit="10" stroke-width="1"/>
  </g>
</svg>
