<svg id="Group_4" data-name="Group 4" xmlns="http://www.w3.org/2000/svg" xmlns:xlink="http://www.w3.org/1999/xlink" width="136.101" height="179.274" viewBox="0 0 136.101 179.274">
  <defs>
    <clipPath id="clip-path">
      <rect id="Rectangle_4" data-name="Rectangle 4" width="136.101" height="179.274" fill="none"/>
    </clipPath>
  </defs>
  <g id="Group_7" data-name="Group 7" transform="translate(0 0)" clip-path="url(#clip-path)">
    <path id="Path_7" data-name="Path 7" d="M135.3,38.588,98.25,1.611v-.4h-.4L97.436.8A2.739,2.739,0,0,0,95.5,0H9.087A9.091,9.091,0,0,0,0,9.076V170.2a9.091,9.091,0,0,0,9.087,9.073H127.014A9.091,9.091,0,0,0,136.1,170.2V40.527a2.741,2.741,0,0,0-.805-1.94M98.25,9.352l28.487,28.433H98.25ZM127.014,173.8H9.087A3.606,3.606,0,0,1,5.479,170.2V9.076a3.607,3.607,0,0,1,3.608-3.6H92.771V40.524a2.739,2.739,0,0,0,2.739,2.739h35.111V170.2a3.606,3.606,0,0,1-3.608,3.594" transform="translate(0 0)" fill="#231f20"/>
    <path id="Path_8" data-name="Path 8" d="M83.015,69.507c-2.2-1.345-7.4-3.6-17.491-3.6-.594,0-1.189.027-1.783.058-.471.025-.942.047-1.414.055q-.538-.583-1.126-1.2c-.833-.879-1.723-1.827-2.627-2.876A113.661,113.661,0,0,1,49.156,50.3c3.285-8.791,3.887-13.141,3.767-16.957-.5-10.9-7.838-11.026-7.911-11.026-2.679,0-7.785,1.992-7.911,9.53-.118,6.355.729,11.8,5.29,19.2-1.033,2.748-2.4,5.964-4.405,10.347-.975,2.016-1.915,3.994-2.816,5.9-.671,1.414-1.323,2.786-1.953,4.1-11.689,3.983-16.07,8.585-18.179,10.8C9.259,88.1,11.36,92.8,12.1,94.038a7.267,7.267,0,0,0,6.449,4.126,8.384,8.384,0,0,0,3.411-.751c1.49-.619,6-2.5,15.6-21.039a100.2,100.2,0,0,1,9.8-2.348A120.184,120.184,0,0,1,60.015,72.2c8.191,8.5,11.215,10.355,15.22,11.481a12.474,12.474,0,0,0,3.575.5c4.764,0,7.186-2.986,7.854-4.723a8.194,8.194,0,0,0-3.649-9.95M19.532,91.855a2.372,2.372,0,0,1-.978.277,1.215,1.215,0,0,1-.945-.52V91.37l-.466-.466c-.1-.3-.444-1.816,2.145-4.5a28.991,28.991,0,0,1,9.561-6.81c-6.084,10.782-8.936,12.111-9.317,12.256m23.6-60.087c.066-2.046.638-3.222,1.7-3.5.526.255,1.874,1.285,2.057,5.115,0,2.087-.145,4.572-1.756,9.766a24.628,24.628,0,0,1-2-11.377m3.054,36.248c-1.753.277-3.463.688-5.117,1.088.734-1.671,1.608-3.422,2.471-5.147.822-1.863,1.545-3.586,2.235-5.224.263-.619.518-1.227.764-1.8,1.942,2.526,4.482,5.693,7.61,9.037.195.244.389.466.589.685-3.191.384-6.008.83-8.553,1.359M80.972,77.18l-.049.123a2.312,2.312,0,0,1-2.112.844,7.253,7.253,0,0,1-2.049-.329c-1.841-.463-3.591-.9-8.6-5.827,7.279.323,10.6,1.983,11.681,2.52,1.578,1.022,1.318,2.208,1.134,2.668" transform="translate(19.333 38.824)" fill="#231f20"/>
  </g>
</svg>
