<svg width="176" height="163" viewBox="0 0 176 163" fill="none" xmlns="http://www.w3.org/2000/svg">
<path d="M12.5001 81.2606C12.4982 69.1915 15.6735 57.3346 21.7068 46.8818C27.7401 36.429 36.4188 27.7486 46.8705 21.7132C57.3221 15.6779 69.1784 12.5003 81.2474 12.4998C93.3165 12.4993 105.173 15.676 115.625 21.7106C117.06 22.5263 118.759 22.7414 120.352 22.309C121.945 21.8766 123.302 20.8317 124.127 19.4024C124.952 17.9731 125.178 16.2754 124.757 14.6798C124.335 13.0842 123.299 11.7202 121.875 10.8855C106.386 1.94282 88.3786 -1.63919 70.6462 0.69505C52.9137 3.02929 36.4469 11.1493 23.7995 23.7958C11.1522 36.4424 3.03111 52.9086 0.695731 70.641C-1.63964 88.3733 1.94121 106.381 10.8829 121.871C19.8247 137.36 33.6276 149.467 50.1511 156.313C66.6745 163.159 84.9951 164.361 102.272 159.734C119.548 155.106 134.815 144.907 145.705 130.719C156.594 116.531 162.498 99.146 162.5 81.2606C162.5 79.6029 161.842 78.0132 160.67 76.8411C159.497 75.669 157.908 75.0106 156.25 75.0106C154.593 75.0106 153.003 75.669 151.831 76.8411C150.659 78.0132 150 79.6029 150 81.2606C150 99.4942 142.757 116.981 129.864 129.874C116.971 142.767 99.4837 150.011 81.2501 150.011C63.0165 150.011 45.5296 142.767 32.6365 129.874C19.7434 116.981 12.5001 99.4942 12.5001 81.2606Z" fill="#273869"/>
<path d="M173.176 23.1852C173.757 22.6041 174.218 21.9142 174.532 21.155C174.847 20.3958 175.008 19.582 175.008 18.7602C175.008 17.9384 174.847 17.1247 174.532 16.3654C174.218 15.6062 173.757 14.9163 173.176 14.3352C172.594 13.7541 171.905 13.2932 171.145 12.9787C170.386 12.6642 169.572 12.5023 168.751 12.5023C167.929 12.5023 167.115 12.6642 166.356 12.9787C165.597 13.2932 164.907 13.7541 164.326 14.3352L81.2506 97.4227L48.1756 64.3352C47.5945 63.7541 46.9046 63.2932 46.1454 62.9787C45.3861 62.6642 44.5724 62.5023 43.7506 62.5023C42.9288 62.5023 42.115 62.6642 41.3558 62.9787C40.5965 63.2932 39.9067 63.7541 39.3256 64.3352C38.7445 64.9163 38.2835 65.6062 37.969 66.3654C37.6545 67.1247 37.4927 67.9384 37.4927 68.7602C37.4927 69.582 37.6545 70.3958 37.969 71.155C38.2835 71.9143 38.7445 72.6041 39.3256 73.1852L76.8256 110.685C77.4061 111.267 78.0958 111.729 78.8552 112.044C79.6145 112.359 80.4285 112.521 81.2506 112.521C82.0727 112.521 82.8867 112.359 83.646 112.044C84.4053 111.729 85.095 111.267 85.6756 110.685L173.176 23.1852V23.1852Z" fill="#273869"/>
</svg>
