<svg id="Skynet_Radio_Icon_200x200" data-name="Skynet Radio Icon 200x200" xmlns="http://www.w3.org/2000/svg" width="200" height="200" viewBox="0 0 200 200">
  <g id="Skynet_Radio_Icon_200x200-2" data-name="Skynet Radio Icon 200x200" transform="translate(-6.001 -56.613)">
    <circle id="Ellipse_508" data-name="Ellipse 508" cx="12.223" cy="12.223" r="12.223" transform="translate(93.779 143.785)" fill="#273869"/>
    <path id="Path_8863" data-name="Path 8863" d="M79.095,132.094a36,36,0,0,0,0,47.82m53.82,0a36,36,0,0,0,0-47.82M59.981,112.98a63,63,0,0,0,0,86.04m92.041,0a63,63,0,0,0,0-86.04M173.127,216a90.128,90.128,0,0,0,0-120M38.876,96a90.128,90.128,0,0,0,0,120" transform="translate(0 0)" fill="none" stroke="#273869" stroke-linecap="round" stroke-linejoin="round" stroke-width="10"/>
  </g>
  <rect id="Rectangle_10982" data-name="Rectangle 10982" width="200" height="200" fill="none"/>
</svg>
