<svg id="Skynet_Cinema_Icon_200x200_" data-name="Skynet Cinema Icon 200x200 " xmlns="http://www.w3.org/2000/svg" width="200" height="200" viewBox="0 0 200 200">
  <path id="Skynet_Cinema_Icon_200x200_2" data-name="Skynet Cinema Icon 200x200 " d="M40.778,4V155.111M135.222,4V155.111M3,41.778H40.778m94.444,0H173M3,79.556H173M3,117.333H40.778m94.444,0H173M12.444,155.111H163.556A9.444,9.444,0,0,0,173,145.667V13.444A9.444,9.444,0,0,0,163.556,4H12.444A9.444,9.444,0,0,0,3,13.444V145.667a9.444,9.444,0,0,0,9.444,9.444Z" transform="translate(12 20.188)" fill="none" stroke="#273869" stroke-linecap="round" stroke-linejoin="round" stroke-width="9"/>
  <rect id="Rectangle_10982" data-name="Rectangle 10982" width="200" height="200" fill="none"/>
</svg>
