<svg id="Skynet_Print_Icon_200x200" data-name="Skynet Print Icon 200x200" xmlns="http://www.w3.org/2000/svg" width="200" height="200" viewBox="0 0 200 200">
  <rect id="Rectangle_10982" data-name="Rectangle 10982" width="200" height="200" fill="none"/>
  <path id="Skynet_Print_Icon_200x200-2" data-name="Skynet Print Icon 200x200" d="M-249.415,676.67l-15.3-1.032c6.674-14.28,10.371-22.774,11.079-24.412l.28-.647-3.768-5.716H-274.4l6.553-13.326-5.269-5.8-.829.315c-24.942,9.435-83.215,13.009-85.684,13.157l-.35.022-3.323,2.2-57.022,116.155,1.192,6.287.435.3c.44.311,44.979,30.991,112.836,31.553l.358,0,3.505-2.059.173-.315c2.889-5.275,50.061-99.328,55.485-110.143l.315-.624ZM-356.741,780.739a118.941,118.941,0,0,0,39.152-3.484l2.482-1.843.339-.4c20.717-38.611,36.322-70.4,45.872-90.508l11.324.763c-11.359,22.637-43.9,87.484-51,101.31A231.277,231.277,0,0,1-356.741,780.739ZM-281.1,637.814l-57.454,116.845c-7.723,2.443-40.959,11.8-71.693,3.106l53.812-109.615C-346.656,647.493-306.789,644.5-281.1,637.814ZM-333.765,762.68l2.437-2.05,52.439-106.647h14.061c-6.4,14.287-26.071,57.126-57.039,114.962-14.176,3.538-30.152,3.892-47.622,1.066A155.351,155.351,0,0,0-333.765,762.68Z" transform="translate(433.179 -611.48)" fill="#273869"/>
</svg>
