<svg width="6" height="11" viewBox="0 0 6 11" fill="none" xmlns="http://www.w3.org/2000/svg">
<path d="M5.74891 4.89337L1.33435 0.243441C1.26184 0.166303 1.17557 0.105077 1.08053 0.0632943C0.985484 0.0215119 0.883539 0 0.780576 0C0.677612 0 0.575667 0.0215119 0.480622 0.0632943C0.385577 0.105077 0.299313 0.166303 0.226806 0.243441C0.081538 0.397639 0 0.606229 0 0.823653C0 1.04108 0.081538 1.24967 0.226806 1.40387L4.0876 5.51885L0.226806 9.59268C0.081538 9.74688 0 9.95547 0 10.1729C0 10.3903 0.081538 10.5989 0.226806 10.7531C0.299041 10.8309 0.385184 10.8927 0.480241 10.9351C0.575299 10.9775 0.677382 10.9995 0.780576 11C0.88377 10.9995 0.985853 10.9775 1.08091 10.9351C1.17597 10.8927 1.26211 10.8309 1.33435 10.7531L5.74891 6.10317C5.82808 6.02611 5.89126 5.93257 5.93447 5.82846C5.97769 5.72435 6 5.61193 6 5.49827C6 5.38461 5.97769 5.27219 5.93447 5.16808C5.89126 5.06397 5.82808 4.97044 5.74891 4.89337Z" fill="#8695B1"/>
</svg>
