<svg xmlns="http://www.w3.org/2000/svg" width="28" height="28" viewBox="0 0 28 28">
  <g id="icon-chat" transform="translate(-656 -617)">
    <circle id="Ellipse_58" data-name="Ellipse 58" cx="14" cy="14" r="14" transform="translate(656 617)" fill="#e85877"/>
    <path id="message-circle" d="M16.242,9.253a6.165,6.165,0,0,1-.662,2.8,6.253,6.253,0,0,1-5.591,3.458,6.165,6.165,0,0,1-2.8-.662L3,16.242l1.4-4.193a6.165,6.165,0,0,1-.662-2.8A6.253,6.253,0,0,1,7.193,3.662,6.165,6.165,0,0,1,9.989,3h.368a6.238,6.238,0,0,1,5.885,5.885Z" transform="translate(660.379 621.379)" fill="none" stroke="#fff" stroke-linecap="round" stroke-linejoin="round" stroke-width="2"/>
  </g>
</svg>
