<svg width="14" height="16" viewBox="0 0 14 16" fill="none" xmlns="http://www.w3.org/2000/svg">
<path d="M13.83 9.12592C13.9451 8.99699 14.0059 8.82758 13.9995 8.65383C13.9932 8.48007 13.9201 8.31572 13.7959 8.19582C13.6717 8.07592 13.5062 8.00997 13.3347 8.01203C13.1632 8.01409 12.9993 8.08399 12.8779 8.20684L7.65797 13.7631V0.666645C7.65797 0.489839 7.5887 0.320276 7.46538 0.195256C7.34207 0.0702355 7.17483 0 7.00044 0C6.82605 0 6.6588 0.0702355 6.53549 0.195256C6.41218 0.320276 6.3429 0.489839 6.3429 0.666645V13.7631L1.12209 8.20684C1.00071 8.08399 0.836806 8.01409 0.665318 8.01203C0.49383 8.00997 0.328335 8.07592 0.204129 8.19582C0.0799224 8.31572 0.00683546 8.48007 0.000455587 8.65383C-0.00592428 8.82758 0.0549078 8.99699 0.169978 9.12592L6.3657 15.7213C6.50597 15.8706 6.68658 15.9595 6.87419 15.9879C6.9582 16.0043 7.04455 16.004 7.12844 15.987C7.32207 15.9583 7.50055 15.8644 7.63518 15.7204L13.8309 9.12592H13.83Z" fill="#273869"/>
</svg>
