<svg id="Skynet_NonMedia_Icon_200x200" data-name="Skynet NonMedia Icon 200x200" xmlns="http://www.w3.org/2000/svg" width="200" height="200" viewBox="0 0 200 200">
  <path id="Skynet_NonMedia_Icon_200x200-2" data-name="Skynet NonMedia Icon 200x200" d="M949.968,404.869l-26.115,25.9h0a4.363,4.363,0,0,1-6.155,0h0l-26.115-25.9a4.306,4.306,0,0,1,3.078-7.364,4.344,4.344,0,0,1,3.078,1.265L916.423,417.3V319.8H820.668a4.317,4.317,0,1,1,0-8.633H920.775a4.331,4.331,0,0,1,4.353,4.316V417.3l18.685-18.532h0a4.36,4.36,0,0,1,7.43,3.052A4.269,4.269,0,0,1,949.968,404.869ZM819.393,338.335a4.27,4.27,0,0,1,1.275,3.052,4.356,4.356,0,0,1-7.43,3.047h0L794.553,325.9v97.5h95.755a4.317,4.317,0,1,1,0,8.634H790.2a4.334,4.334,0,0,1-4.352-4.317V325.9l-18.685,18.531h0a4.357,4.357,0,0,1-7.431-3.047,4.292,4.292,0,0,1,1.275-3.052h0l26.115-25.9h0a4.378,4.378,0,0,1,6.155,0h0l26.115,25.9Z" transform="translate(-755.233 -270.652)" fill="#273869" stroke="#273869" stroke-width="0.5" fill-rule="evenodd"/>
  <rect id="Rectangle_10982" data-name="Rectangle 10982" width="200" height="200" fill="none"/>
</svg>
