<svg id="Skynet_Search_Icon_200x200" data-name="Skynet Search Icon 200x200" xmlns="http://www.w3.org/2000/svg" width="200" height="200" viewBox="0 0 200 200">
  <rect id="Rectangle_10982" data-name="Rectangle 10982" width="200" height="200" fill="none"/>
  <g id="Skynet_Search_Icon_200x200-2" data-name="Skynet Search Icon 200x200" transform="translate(-580.381 -1020.257)">
    <path id="Path_8884" data-name="Path 8884" d="M606.791,1065.875V1122h54.621v-56.127Zm8.34,47.6v-39.068h37.941v39.068Z" transform="translate(7.348 21.322)" fill="#273869"/>
    <rect id="Rectangle_10981" data-name="Rectangle 10981" width="61.19" height="8.476" transform="translate(683.199 1088.328)" fill="#273869"/>
    <path id="Path_8885" data-name="Path 8885" d="M683.943,1083.928l.236.193h5.288v-8.476h-21.8l4.609,1.656A39.15,39.15,0,0,1,683.943,1083.928Z" transform="translate(54.922 28.061)" fill="#273869"/>
    <path id="Path_8886" data-name="Path 8886" d="M644.577,1084.121h5.616l.236-.193a39.205,39.205,0,0,1,11.664-6.628l4.608-1.656H644.577Z" transform="translate(36.698 28.061)" fill="#273869"/>
    <path id="Path_8887" data-name="Path 8887" d="M606.791,1111.323h59.424l-.493-1.181a39.041,39.041,0,0,1-2.082-6.624l-.147-.671h-56.7Z" transform="translate(7.348 48.643)" fill="#273869"/>
    <path id="Path_8888" data-name="Path 8888" d="M606.791,1120.08h71.237l-1.724-1.5a39.645,39.645,0,0,1-6.085-6.626l-.257-.351H606.791Z" transform="translate(7.348 55.268)" fill="#273869"/>
    <path id="Path_8889" data-name="Path 8889" d="M711.087,1115.313a34.23,34.23,0,1,0-15.653,25.626l16.619,20.022,6.562-5.449-16.622-20.023A34.214,34.214,0,0,0,711.087,1115.313Zm-8.493-.787a25.673,25.673,0,1,1-5.812-18.74A25.664,25.664,0,0,1,702.593,1114.526Z" transform="translate(37.43 32.265)" fill="#273869"/>
    <path id="Path_8890" data-name="Path 8890" d="M615.79,1057.137l-4.351-4.352,4.351-4.352-3.618-3.617-7.971,7.969,7.971,7.97Z" transform="translate(5.519 4.417)" fill="#273869"/>
    <path id="Path_8891" data-name="Path 8891" d="M621.079,1060.755l7.969-7.97-7.969-7.969-3.618,3.617,4.351,4.352-4.351,4.352Z" transform="translate(15.969 4.417)" fill="#273869"/>
    <path id="Path_8892" data-name="Path 8892" d="M753.332,1038.558h-145.9c-6.4,0-11.05,5.387-11.05,12.806v139.731c0,4.3,4.826,9.3,11.05,9.3H735.577v-8.77H607.431a2.282,2.282,0,0,1-2.281-2.28V1078.235H755.612V1173.4h8.769V1051.364C764.381,1043.945,759.736,1038.558,753.332,1038.558Zm-145.9,8.769h145.9a2.285,2.285,0,0,1,2.28,2.282v19.856H605.15V1049.61A2.285,2.285,0,0,1,607.431,1047.327Z" transform="translate(0 0)" fill="#273869"/>
  </g>
</svg>
