<svg
    class="ml-2"
    xmlns="http://www.w3.org/2000/svg"
    width="14"
    height="14"
    viewBox="0 0 24 24"
    fill="none"
  >
    <path
      d="M0 3.4C0 2.49826 0.358213 1.63346 0.995837 0.995837C1.63346 0.358213 2.49826 0 3.4 0H17.6443C18.546 0.000192567 19.4106 0.358532 20.0481 0.9962L22.8038 3.7519C23.4415 4.38938 23.7998 5.25404 23.8 6.1557V20.4C23.8 21.3017 23.4418 22.1665 22.8042 22.8042C22.1665 23.4418 21.3017 23.8 20.4 23.8H3.4C2.49826 23.8 1.63346 23.4418 0.995837 22.8042C0.358213 22.1665 0 21.3017 0 20.4V3.4ZM3.4 1.7C2.94913 1.7 2.51673 1.87911 2.19792 2.19792C1.87911 2.51673 1.7 2.94913 1.7 3.4V20.4C1.7 20.8509 1.87911 21.2833 2.19792 21.6021C2.51673 21.9209 2.94913 22.1 3.4 22.1V14.45C3.4 13.7737 3.66866 13.1251 4.14688 12.6469C4.6251 12.1687 5.2737 11.9 5.95 11.9H17.85C18.5263 11.9 19.1749 12.1687 19.6531 12.6469C20.1313 13.1251 20.4 13.7737 20.4 14.45V22.1C20.8509 22.1 21.2833 21.9209 21.6021 21.6021C21.9209 21.2833 22.1 20.8509 22.1 20.4V6.1557C22.0999 5.70487 21.9207 5.27254 21.6019 4.9538L18.8462 2.1981C18.5275 1.87927 18.0951 1.7001 17.6443 1.7H17V5.95C17 6.6263 16.7313 7.27491 16.2531 7.75312C15.7749 8.23134 15.1263 8.5 14.45 8.5H7.65C6.9737 8.5 6.3251 8.23134 5.84688 7.75312C5.36866 7.27491 5.1 6.6263 5.1 5.95V1.7H3.4ZM6.8 1.7V5.95C6.8 6.17543 6.88955 6.39163 7.04896 6.55104C7.20837 6.71045 7.42457 6.8 7.65 6.8H14.45C14.6754 6.8 14.8916 6.71045 15.051 6.55104C15.2104 6.39163 15.3 6.17543 15.3 5.95V1.7H6.8ZM18.7 22.1V14.45C18.7 14.2246 18.6104 14.0084 18.451 13.849C18.2916 13.6896 18.0754 13.6 17.85 13.6H5.95C5.72457 13.6 5.50837 13.6896 5.34896 13.849C5.18955 14.0084 5.1 14.2246 5.1 14.45V22.1H18.7Z"
      fill="white"
    />
  </svg>