<svg id="Skynet_Programmatic_Icon_200x200" data-name="Skynet Programmatic Icon 200x200" xmlns="http://www.w3.org/2000/svg" width="200" height="200" viewBox="0 0 200 200">
  <g id="Skynet_Programmatic_Icon_200x200-2" data-name="Skynet Programmatic Icon 200x200" transform="translate(6.198 6.823)">
    <path id="Path_8879" data-name="Path 8879" d="M93.828,57.719a35.064,35.064,0,0,1,11.389,1.915l9.136-9.129a47.544,47.544,0,1,0,22.072,21.987L127.32,81.6A35.1,35.1,0,0,1,129.3,93.2,35.472,35.472,0,1,1,93.828,57.719Z" fill="#273869"/>
    <path id="Path_8880" data-name="Path 8880" d="M134.124,43.558V60.8l-30.53,29.858a9.472,9.472,0,1,0,5.312,5.321l30.53-29.858h17.245a3.753,3.753,0,0,0,2.617-1.1l20.83-21.441c.689-.672,6.594-6.42,4.527-6.42H162.438V15.174c0-2.076-5.74,3.611-6.42,4.283l-20.83,21.449A3.75,3.75,0,0,0,134.124,43.558Z" transform="translate(-12.728)" fill="#273869"/>
    <path id="Path_8881" data-name="Path 8881" d="M170.784,57.08,161.158,66.7A72.612,72.612,0,1,1,120.039,25.74l9.633-9.634A83.985,83.985,0,0,0,93.826,8.169,85.008,85.008,0,1,0,178.8,93.185,83.949,83.949,0,0,0,170.784,57.08Z" transform="translate(0 0)" fill="#273869"/>
  </g>
  <rect id="Rectangle_10982" data-name="Rectangle 10982" width="200" height="200" fill="none"/>
</svg>
