<svg width="56" height="56" viewBox="0 0 56 56" fill="none" xmlns="http://www.w3.org/2000/svg">
<circle r="28" transform="matrix(-1 0 0 1 28 28)" fill="#E5E5E5"/>
<path d="M26.0974 27.9046L15.7439 17.5787C15.5393 17.3404 15.4324 17.0339 15.4445 16.7204C15.4567 16.4069 15.587 16.1096 15.8094 15.8877C16.0318 15.6659 16.33 15.536 16.6443 15.5239C16.9586 15.5117 17.2659 15.6184 17.5049 15.8224L27.8584 26.1483L38.212 15.81C38.4472 15.5754 38.7661 15.4437 39.0987 15.4437C39.4313 15.4437 39.7503 15.5754 39.9854 15.81C40.2206 16.0445 40.3527 16.3626 40.3527 16.6943C40.3527 17.026 40.2206 17.3442 39.9854 17.5787L29.6194 27.9046L39.9854 38.2304C40.1162 38.3421 40.2224 38.4795 40.2973 38.634C40.3723 38.7886 40.4144 38.9569 40.4211 39.1284C40.4277 39.3 40.3987 39.471 40.3359 39.6309C40.2732 39.7907 40.1779 39.9359 40.0562 40.0573C39.9345 40.1786 39.7889 40.2736 39.6287 40.3363C39.4684 40.3989 39.2969 40.4278 39.1249 40.4212C38.9529 40.4145 38.7841 40.3725 38.6292 40.2978C38.4742 40.223 38.3364 40.1171 38.2245 39.9867L27.8584 29.6608L17.5049 39.9867C17.2659 40.1908 16.9586 40.2974 16.6443 40.2853C16.33 40.2732 16.0318 40.1432 15.8094 39.9214C15.587 39.6996 15.4567 39.4022 15.4445 39.0887C15.4324 38.7752 15.5393 38.4687 15.7439 38.2304L26.0974 27.9046Z" fill="#566775"/>
</svg>
