<svg id="Group_1" data-name="Group 1" xmlns="http://www.w3.org/2000/svg" xmlns:xlink="http://www.w3.org/1999/xlink" width="162.859" height="180.803" viewBox="0 0 162.859 180.803">
  <defs>
    <clipPath id="clip-path">
      <rect id="Rectangle_1" data-name="Rectangle 1" width="162.859" height="180.803" fill="none"/>
    </clipPath>
  </defs>
  <g id="Group_1-2" data-name="Group 1" clip-path="url(#clip-path)">
    <path id="Path_1" data-name="Path 1" d="M154.641,0H34.106a8.242,8.242,0,0,0-8.218,8.218V43.831H8.218A8.225,8.225,0,0,0,0,52.049v76.7a8.207,8.207,0,0,0,8.218,8.218H25.888v35.613a8.225,8.225,0,0,0,8.218,8.218H154.641a8.207,8.207,0,0,0,8.218-8.218V8.218A8.225,8.225,0,0,0,154.641,0M108.783,93.908h48.6v30.454h-48.6ZM5.479,128.753v-76.7A2.747,2.747,0,0,1,8.218,49.31h76.7a2.747,2.747,0,0,1,2.739,2.739v76.7a2.747,2.747,0,0,1-2.739,2.739H8.218a2.747,2.747,0,0,1-2.739-2.739M93.141,57.966H103.3V88.429H93.141Zm15.642,0h48.6V88.429h-48.6Zm48.6-49.748V52.488h-48.6V5.479h45.858a2.73,2.73,0,0,1,2.739,2.739m-126.014,0a2.747,2.747,0,0,1,2.739-2.739h69.2V52.488H93.141v-.438a8.242,8.242,0,0,0-8.218-8.218H31.367ZM154.641,175.324H34.106a2.747,2.747,0,0,1-2.739-2.739V136.972H84.922a8.225,8.225,0,0,0,8.218-8.218V93.908H103.3V127.1a2.74,2.74,0,0,0,2.739,2.739h51.337v42.743a2.73,2.73,0,0,1-2.739,2.739" fill="#231f20"/>
    <path id="Path_2" data-name="Path 2" d="M15.325,62l-5.479,7.15-.411.548a1.019,1.019,0,0,0,.411,1.561,1,1,0,0,0,.411.082h6.191a1.027,1.027,0,0,0,.822-.384l13.2-17.286L43.706,70.956a1.027,1.027,0,0,0,.822.384H50.8a.994.994,0,0,0,.9-.575,1.007,1.007,0,0,0-.082-1.068l-14-18.3-2.712-3.534,1.479-1.945L51.6,26.084a.953.953,0,0,0,.11-1.068.994.994,0,0,0-.9-.575H44.582a1.05,1.05,0,0,0-.822.411l-13.2,17.258L17.325,24.851a.976.976,0,0,0-.822-.411H10.257a1,1,0,0,0-.411.082,1.019,1.019,0,0,0-.411,1.561l.411.548,5.479,7.15,9.259,12.136,1.534,2L23.461,51.4Z" transform="translate(16.041 42.512)" fill="#231f20"/>
  </g>
</svg>
