<svg width="200" height="200" viewBox="0 0 200 200" fill="none" xmlns="http://www.w3.org/2000/svg">
<path d="M54.8979 100.649C54.8981 109.849 57.6265 118.843 62.738 126.492C67.8495 134.142 75.1145 140.104 83.6143 143.624C92.1142 147.145 101.467 148.066 110.491 146.271C119.514 144.476 127.802 140.046 134.308 133.54C140.813 127.035 145.243 118.746 147.038 109.723C148.833 100.699 147.912 91.3463 144.391 82.8465C140.87 74.3467 134.908 67.0817 127.258 61.9704C119.609 56.8591 110.615 54.131 101.415 54.131C89.0819 54.1447 77.258 59.0502 68.5373 67.7711C59.8166 76.4919 54.9114 88.316 54.8979 100.649V100.649ZM86.318 130.125C90.873 128.986 98.551 124.563 98.551 115.181C98.5392 112.441 97.967 109.732 96.8697 107.221C95.7723 104.711 94.173 102.451 92.17 100.581C92.1418 99.3741 92.2976 98.17 92.632 97.01L93.163 94.867L92.1509 92.901C90.8758 89.5054 90.7776 85.7801 91.8719 82.322C92.3511 81.1077 93.0823 80.0089 94.0172 79.0979C94.9522 78.1869 96.0697 77.4845 97.296 77.037L97.866 76.757C99.6889 75.8904 101.669 75.4035 103.686 75.326C106.692 75.326 108.303 76.681 109.432 80.161L109.653 80.841L110.17 81.665C111.303 83.3644 112.001 85.3167 112.201 87.3495C112.401 89.3823 112.098 91.4331 111.318 93.321L110.404 95.481L111.232 97.676C111.658 98.5752 111.74 99.5993 111.463 100.555C107.483 104.394 105.184 109.652 105.071 115.181C105.071 122.813 107.753 125.181 111.539 127.681L111.801 127.853C113.827 129.2 115.926 130.433 118.088 131.547L118.661 131.847C119.832 132.447 120.761 132.965 121.518 133.434C115.321 137.247 108.168 139.22 100.892 139.121C93.6168 139.022 86.5196 136.856 80.429 132.875C82.2738 131.724 84.2512 130.801 86.318 130.125V130.125ZM122.339 124.619L121.833 124.356C119.927 123.375 118.078 122.289 116.293 121.103L116.015 120.919C113.671 119.369 113.184 119.047 113.184 115.181C113.184 109.847 117.321 106.164 117.521 105.981L117.721 105.781C117.858 105.62 121.027 101.792 119.108 95.656C120.201 92.6534 120.583 89.4385 120.224 86.2635C119.866 83.0885 118.777 80.0396 117.043 77.356C114.817 70.816 110.073 67.215 103.684 67.215C100.349 67.292 97.0711 68.1022 94.084 69.588C91.8495 70.4581 89.8225 71.7871 88.1336 73.4893C86.4447 75.1914 85.1315 77.2288 84.279 79.47C81.865 85.91 83.3919 92.894 84.5789 95.819C83.0439 102.772 85.1629 105.278 86.1119 106.004L86.2939 106.179C87.5793 107.303 88.6129 108.686 89.3271 110.237C90.0414 111.787 90.4203 113.472 90.439 115.179C90.439 120.829 84.408 122.245 84.127 122.31L83.9099 122.373C80.3045 123.483 76.935 125.249 73.9709 127.582C69.5502 123.078 66.3056 117.556 64.5231 111.502C62.7406 105.448 62.4751 99.0484 63.7499 92.8676C65.0247 86.6868 67.8007 80.9146 71.8331 76.06C75.8655 71.2054 81.0305 67.4176 86.8725 65.0305C92.7145 62.6433 99.0541 61.7303 105.332 62.3719C111.611 63.0135 117.634 65.1899 122.873 68.7093C128.111 72.2287 132.403 76.983 135.37 82.5529C138.338 88.1227 139.889 94.3371 139.887 100.648C139.872 105.788 138.831 110.874 136.827 115.607C134.822 120.34 131.894 124.626 128.213 128.214C126.379 126.824 124.411 125.619 122.339 124.619V124.619Z" fill="#273869"/>
<path d="M38.95 121.962L38.213 119.854L30.623 122.503L31.359 124.612C34.9089 134.816 40.6563 144.116 48.1951 151.855C55.734 159.594 64.8804 165.582 74.988 169.398L77.077 170.19L79.925 162.672L77.836 161.88C68.8272 158.479 60.6751 153.141 53.9558 146.243C47.2365 139.346 42.1139 131.057 38.95 121.962V121.962Z" fill="#273869"/>
<path d="M162.81 123.588C159.529 132.23 154.47 140.086 147.96 146.649C141.45 153.213 133.636 158.336 125.021 161.688L122.939 162.496L125.852 169.996L127.933 169.187C137.599 165.426 146.367 159.678 153.671 152.315C160.975 144.952 166.651 136.137 170.333 126.441L171.124 124.352L163.606 121.502L162.81 123.588Z" fill="#273869"/>
<path d="M163.249 78.094L164 80.194L171.573 77.494L170.822 75.394C167.196 65.1954 161.37 55.9197 153.758 48.2247C146.145 40.5298 136.933 34.6041 126.774 30.868L124.679 30.095L121.894 37.638L123.994 38.413C133.048 41.7423 141.258 47.0231 148.042 53.8808C154.826 60.7385 160.018 69.005 163.249 78.094V78.094Z" fill="#273869"/>
<path d="M39.9591 75.824C43.3809 67.2731 48.5527 59.5322 55.1426 53.098C61.7325 46.6637 69.5949 41.6784 78.2251 38.462L80.3181 37.684L77.5181 30.147L75.4251 30.925C65.7419 34.5325 56.9203 40.1253 49.5266 47.344C42.1328 54.5628 36.3305 63.248 32.4921 72.842L31.6631 74.917L39.1311 77.899L39.9591 75.824Z" fill="#273869"/>
<path d="M48.4311 100.245C48.4313 96.8676 47.4299 93.566 45.5537 90.7577C43.6774 87.9494 41.0105 85.7606 37.8902 84.468C34.7699 83.1754 31.3364 82.8372 28.0239 83.496C24.7114 84.1549 21.6687 85.7812 19.2805 88.1694C16.8923 90.5576 15.266 93.6003 14.6071 96.9128C13.9483 100.225 14.2865 103.659 15.5791 106.779C16.8716 109.899 19.0605 112.566 21.8688 114.443C24.677 116.319 27.9787 117.32 31.3561 117.32C35.8826 117.313 40.2218 115.512 43.4226 112.312C46.6233 109.111 48.4245 104.772 48.4311 100.245V100.245ZM31.3561 91.21C33.143 91.2102 34.8897 91.7402 36.3753 92.7331C37.861 93.726 39.0189 95.1372 39.7026 96.7881C40.3863 98.4391 40.565 100.256 40.2163 102.008C39.8676 103.761 39.007 105.371 37.7434 106.634C36.4798 107.898 34.8699 108.758 33.1173 109.106C31.3647 109.455 29.5482 109.276 27.8973 108.592C26.2464 107.908 24.8354 106.75 23.8427 105.264C22.8499 103.779 22.32 102.032 22.32 100.245C22.323 97.8496 23.2758 95.5532 24.9696 93.8595C26.6633 92.1657 28.9597 91.2129 31.355 91.21H31.3561Z" fill="#273869"/>
<path d="M101.175 48.427C104.553 48.427 107.854 47.4254 110.662 45.5489C113.471 43.6724 115.659 41.0052 116.952 37.8848C118.244 34.7643 118.582 31.3307 117.923 28.0181C117.264 24.7056 115.637 21.663 113.248 19.275C110.86 16.887 107.817 15.261 104.504 14.6026C101.191 13.9442 97.7578 14.2829 94.6377 15.576C91.5175 16.869 88.8509 19.0583 86.975 21.867C85.0992 24.6756 84.0983 27.9775 84.0991 31.355C84.1052 35.8816 85.9064 40.221 89.1075 43.4214C92.3087 46.6218 96.6485 48.422 101.175 48.427V48.427ZM101.175 22.316C102.962 22.316 104.709 22.8459 106.195 23.8386C107.681 24.8314 108.839 26.2425 109.522 27.8934C110.206 29.5444 110.385 31.361 110.037 33.1136C109.688 34.8662 108.827 36.4761 107.564 37.7397C106.3 39.0032 104.69 39.8637 102.938 40.2124C101.185 40.561 99.3685 40.3821 97.7176 39.6982C96.0667 39.0144 94.6556 37.8564 93.6628 36.3706C92.67 34.8848 92.1401 33.1379 92.1401 31.351C92.1425 28.9555 93.0952 26.6588 94.7891 24.9649C96.4829 23.271 98.7796 22.3184 101.175 22.316V22.316Z" fill="#273869"/>
<path d="M101.175 153.214C97.798 153.214 94.4967 154.215 91.6886 156.091C88.8805 157.967 86.6918 160.634 85.3993 163.754C84.1067 166.874 83.7684 170.307 84.427 173.619C85.0857 176.931 86.7117 179.974 89.0996 182.362C91.4874 184.75 94.5298 186.377 97.842 187.036C101.154 187.695 104.587 187.357 107.708 186.065C110.828 184.772 113.495 182.584 115.371 179.776C117.247 176.968 118.249 173.667 118.249 170.29C118.243 165.763 116.442 161.424 113.241 158.223C110.041 155.022 105.702 153.221 101.175 153.214V153.214ZM101.175 179.324C99.3883 179.324 97.6416 178.795 96.1558 177.802C94.6701 176.809 93.512 175.399 92.8281 173.748C92.1442 172.097 91.9651 170.281 92.3136 168.528C92.6621 166.776 93.5224 165.166 94.7858 163.902C96.0492 162.639 97.6589 161.778 99.4113 161.43C101.164 161.081 102.98 161.26 104.631 161.944C106.282 162.627 107.693 163.785 108.686 165.271C109.678 166.757 110.208 168.503 110.208 170.29C110.205 172.685 109.253 174.981 107.559 176.674C105.866 178.368 103.57 179.321 101.175 179.324V179.324Z" fill="#273869"/>
<path d="M169.517 83.169C166.14 83.1688 162.838 84.1701 160.03 86.0463C157.221 87.9225 155.033 90.5894 153.74 93.7096C152.447 96.8298 152.109 100.263 152.768 103.576C153.427 106.888 155.053 109.931 157.441 112.319C159.829 114.707 162.872 116.334 166.184 116.993C169.497 117.652 172.93 117.314 176.05 116.021C179.171 114.729 181.838 112.54 183.714 109.732C185.59 106.924 186.592 103.622 186.592 100.245C186.586 95.7183 184.785 91.3788 181.584 88.1778C178.383 84.9768 174.044 83.1756 169.517 83.169V83.169ZM169.517 109.28C167.73 109.28 165.983 108.75 164.497 107.758C163.011 106.765 161.853 105.354 161.169 103.703C160.485 102.052 160.306 100.235 160.655 98.4826C161.003 96.7299 161.864 95.1199 163.127 93.8563C164.391 92.5927 166.001 91.7321 167.754 91.3835C169.506 91.035 171.323 91.214 172.974 91.8979C174.625 92.5819 176.036 93.7401 177.029 95.226C178.021 96.712 178.551 98.459 178.551 100.246C178.548 102.641 177.596 104.937 175.902 106.631C174.208 108.325 171.912 109.277 169.517 109.28V109.28Z" fill="#273869"/>
</svg>
