<svg width="86" height="86" viewBox="0 0 86 86" fill="none" xmlns="http://www.w3.org/2000/svg">
<g clip-path="url(#clip0)">
<path d="M73.234 36.1901C72.6641 36.1901 72.1174 36.4165 71.7144 36.8195C71.3114 37.2225 71.085 37.7691 71.085 38.3391V52.0481L67.541 48.3811C65.041 45.7941 62.355 44.5671 59.563 44.7231C56.8574 45.0046 54.3705 46.3367 52.637 48.4331L46.558 54.5121C43.358 51.3241 39.968 47.8901 37.25 45.0121C34.558 42.1571 31.588 40.7471 28.443 40.8221C23.775 40.9321 20.453 44.3701 19.886 44.9961L4.297 60.0351V21.3861C4.29885 19.6985 4.97006 18.0807 6.16333 16.8874C7.3566 15.6941 8.97445 15.0229 10.662 15.0211H47.673C48.2433 15.0211 48.7901 14.7946 49.1933 14.3914C49.5965 13.9882 49.823 13.4413 49.823 12.8711C49.823 12.3008 49.5965 11.754 49.1933 11.3508C48.7901 10.9476 48.2433 10.7211 47.673 10.7211H10.663C7.836 10.7242 5.12566 11.8487 3.12665 13.8477C1.12764 15.8467 0.00317614 18.557 0 21.3841V74.8361C0.00317614 77.6631 1.12764 80.3734 3.12665 82.3724C5.12566 84.3714 7.836 85.4959 10.663 85.4991H64.721C67.548 85.4959 70.2584 84.3714 72.2574 82.3724C74.2564 80.3734 75.3809 77.6631 75.384 74.8361V38.3361C75.3832 37.7665 75.1563 37.2205 74.7532 36.8181C74.35 36.4157 73.8036 36.1898 73.234 36.1901ZM64.72 81.2021H10.663C8.97549 81.2002 7.35757 80.529 6.16431 79.3358C4.97104 78.1425 4.29989 76.5246 4.29803 74.8371V66.0021L22.929 48.0281L23.069 47.8801C23.092 47.8531 25.462 45.1861 28.546 45.1131C30.434 45.0771 32.304 46.0251 34.124 47.9561C41.538 55.8191 53.865 67.7021 53.988 67.8211C54.1916 68.0169 54.4317 68.1706 54.6946 68.2737C54.9576 68.3767 55.2384 68.4269 55.5208 68.4214C55.8031 68.4159 56.0817 68.3549 56.3405 68.2417C56.5992 68.1286 56.8332 67.9656 57.029 67.7621C57.2248 67.5585 57.3786 67.3184 57.4816 67.0554C57.5846 66.7924 57.6348 66.5117 57.6293 66.2293C57.6239 65.947 57.5628 65.6684 57.4496 65.4096C57.3365 65.1508 57.1736 64.9169 56.97 64.7211C56.908 64.6611 53.707 61.5751 49.611 57.5331L55.855 51.2891L55.941 51.1771C56.9182 50.0007 58.2966 49.2283 59.81 49.0091C61.299 48.9211 62.86 49.7161 64.453 51.3631L71.013 58.1491C71.037 58.1741 71.063 58.1951 71.088 58.2191V74.8321C71.0875 76.521 70.4165 78.1406 69.2224 79.3351C68.0284 80.5295 66.409 81.201 64.72 81.2021V81.2021Z" fill="#A4AFB7"/>
<path d="M83.752 10.857H75.044V2.14902C75.044 1.5788 74.8174 1.03196 74.4142 0.628754C74.011 0.22555 73.4642 -0.000976562 72.894 -0.000976562C72.3238 -0.000976562 71.7769 0.22555 71.3737 0.628754C70.9705 1.03196 70.744 1.5788 70.744 2.14902V10.857H62.0359C61.4657 10.857 60.9189 11.0836 60.5157 11.4868C60.1125 11.89 59.886 12.4368 59.886 13.007C59.886 13.5772 60.1125 14.1241 60.5157 14.5273C60.9189 14.9305 61.4657 15.157 62.0359 15.157H70.744V23.865C70.744 24.4352 70.9705 24.9821 71.3737 25.3853C71.7769 25.7885 72.3238 26.015 72.894 26.015C73.4642 26.015 74.011 25.7885 74.4142 25.3853C74.8174 24.9821 75.044 24.4352 75.044 23.865V15.157H83.752C84.3222 15.157 84.8691 14.9305 85.2723 14.5273C85.6755 14.1241 85.9019 13.5772 85.9019 13.007C85.9019 12.4368 85.6755 11.89 85.2723 11.4868C84.8691 11.0836 84.3222 10.857 83.752 10.857Z" fill="#A4AFB7"/>
<path d="M49.0561 33.3874C50.4436 31.9998 50.4436 29.7502 49.0561 28.3626C47.6686 26.9751 45.4189 26.9751 44.0314 28.3626C42.6439 29.7502 42.6439 31.9998 44.0314 33.3874C45.4189 34.7749 47.6686 34.7749 49.0561 33.3874Z" fill="#A4AFB7"/>
</g>
<defs>
<clipPath id="clip0">
<rect width="85.901" height="85.5" fill="white"/>
</clipPath>
</defs>
</svg>
