<svg id="Skynet_Outdoor_Icon_200x200" data-name="Skynet Outdoor Icon 200x200" xmlns="http://www.w3.org/2000/svg" width="200" height="200" viewBox="0 0 200 200">
  <rect id="Rectangle_10982" data-name="Rectangle 10982" width="200" height="200" fill="none"/>
  <g id="Skynet_Outdoor_Icon_200x200-2" data-name="Skynet Outdoor Icon 200x200" transform="translate(-159.8 -451.858)">
    <g id="Group_14476" data-name="Group 14476" transform="translate(188.682 466.249)">
      <g id="Group_14475" data-name="Group 14475">
        <path id="Path_8866" data-name="Path 8866" d="M609.168,318.452l-83.139,9.238V430.749l83.139,6.441ZM598.957,428.316l-62.717-4.861V334.681l62.717-6.967Z" transform="translate(-510.335 -301.589)" fill="#273869"/>
        <path id="Path_8867" data-name="Path 8867" d="M660.125,314.889H633.607c-.119,0-.217.046-.335.055s-.212-.032-.32-.018L526.929,326.78c-2.395.269-4.175,1.937-4.175,3.911V449.833c0,.06-.041.112-.041.172v19.342a3.75,3.75,0,0,0,1.862,3.121,5.62,5.62,0,0,0,2.963.822,5.781,5.781,0,0,0,1.2-.121l26.519-5.551a4.18,4.18,0,0,0,3.627-3.827v-6.47l69.9,7.451v16.173a3.74,3.74,0,0,0,1.864,3.117,5.573,5.573,0,0,0,2.961.827,5.791,5.791,0,0,0,1.2-.121l26.524-5.546a4.179,4.179,0,0,0,3.622-3.822V318.833C664.95,316.654,662.793,314.889,660.125,314.889ZM549.231,460.726l-16.868,3.535v-9.768l16.868,1.8Zm79.236-3.948L555.5,449a5.178,5.178,0,0,0-.852-.223L532.4,446.517V334.133l96.368-10.771ZM655.3,472.329l-16.87,3.53V322.781H655.3Z" transform="translate(-522.713 -314.889)" fill="#273869"/>
      </g>
    </g>
  </g>
</svg>
