<svg xmlns="http://www.w3.org/2000/svg" xmlns:xlink="http://www.w3.org/1999/xlink" width="137" height="181" viewBox="0 0 137 181">
  <defs>
    <clipPath id="clip-path">
      <rect id="Rectangle_5" data-name="Rectangle 5" width="137" height="181" transform="translate(0.138 -0.476)" fill="none"/>
    </clipPath>
  </defs>
  <g id="Group_5" data-name="Group 5" transform="translate(-0.138 0.476)">
    <g id="Group_9" data-name="Group 9" transform="translate(0 0)" clip-path="url(#clip-path)">
      <path id="Path_9" data-name="Path 9" d="M136.394,79.216,120.184,58V32.654a7.571,7.571,0,0,0-7.5-7.624H95.009L79.559,4.794a2.3,2.3,0,0,0-.214-.247A14.8,14.8,0,0,0,68.661,0h-.025A14.725,14.725,0,0,0,57.991,4.553a2.78,2.78,0,0,0-.2.236L42.228,25.03H24.247a7.571,7.571,0,0,0-7.5,7.624v25.5L.567,79.211A2.728,2.728,0,0,0,0,80.879V173.82a6.91,6.91,0,0,0,6.849,6.958H130.109a6.91,6.91,0,0,0,6.849-6.958V80.879a2.733,2.733,0,0,0-.564-1.663M41.719,125.044,5.479,172.036V87.665ZM61.761,108.03a9.6,9.6,0,0,1,7.531-4.123h.049a9.586,9.586,0,0,1,7.531,4.211L127.425,175.3H9.881Zm34.158,16.291,35.561-36.684v83.939Zm34.689-43.656L120.184,91.418V67.023ZM62.032,8.257a9.29,9.29,0,0,1,6.613-2.778l.016,0A9.359,9.359,0,0,1,75.31,8.257L88.117,25.03H49.14ZM24.247,30.509h88.44a2.115,2.115,0,0,1,2.019,2.145V97.069L92.585,119.891,81.246,104.824a15.1,15.1,0,0,0-11.875-6.4h-.077a15.131,15.131,0,0,0-11.873,6.257L45.1,120.661,22.228,97.069V32.654a2.113,2.113,0,0,1,2.019-2.145m-7.5,60.909L6.345,80.685l10.4-13.538Z" transform="translate(0 -0.001)" fill="#231f20"/>
      <path id="Path_10" data-name="Path 10" d="M38.715,61.967a23.4,23.4,0,0,0,13.626-3.986,1.027,1.027,0,0,0,.3-1.435l-1-1.5a1.032,1.032,0,0,0-1.383-.31,20.243,20.243,0,0,1-11.437,3.235c-9.837,0-18.146-8.183-18.146-17.869A20.211,20.211,0,0,1,40.6,20.136c9.687,0,17.867,7.648,17.867,16.7,0,6.681-3.03,9.722-5.843,9.722a2.372,2.372,0,0,1-2.63-2.63c0-1.022.838-5.279,2-11.174l.92-4.7a1.026,1.026,0,0,0-.931-1.222l-3.712-.277a1.029,1.029,0,0,0-1.085.827l-.252,1.285a9.36,9.36,0,0,0-7.051-2.945c-7.427,0-13.938,6.953-13.938,14.878,0,6.249,4.205,10.613,10.226,10.613a11.945,11.945,0,0,0,8.591-3.783,7.2,7.2,0,0,0,6.758,3.783c5.3,0,11-4.5,11-14.379,0-11.248-9.985-20.751-21.806-20.751A24.454,24.454,0,0,0,16.52,40.161c0,11.821,10.166,21.806,22.195,21.806m6.512-24.792c-.545,5.3-3.709,8.72-8.065,8.72-3.194,0-5.178-2.112-5.178-5.509,0-4.972,3.92-9.336,8.394-9.336a4.837,4.837,0,0,1,3.753,1.359c.926,1.022,1.307,2.671,1.1,4.767" transform="translate(28.735 27.982)" fill="#231f20"/>
    </g>
  </g>
</svg>
