<svg id="Group_2" data-name="Group 2" xmlns="http://www.w3.org/2000/svg" xmlns:xlink="http://www.w3.org/1999/xlink" width="161.243" height="180.803" viewBox="0 0 161.243 180.803">
  <defs>
    <clipPath id="clip-path">
      <rect id="Rectangle_2" data-name="Rectangle 2" width="161.243" height="180.803" fill="none"/>
    </clipPath>
  </defs>
  <g id="Group_3" data-name="Group 3" clip-path="url(#clip-path)">
    <path id="Path_3" data-name="Path 3" d="M153.025,0H32.49a8.207,8.207,0,0,0-8.218,8.218V43.831H8.218A8.225,8.225,0,0,0,0,52.049v76.7a8.242,8.242,0,0,0,8.218,8.218H24.271v35.613A8.225,8.225,0,0,0,32.49,180.8H153.025a8.242,8.242,0,0,0,8.218-8.218V8.218A8.225,8.225,0,0,0,153.025,0M29.75,8.218A2.73,2.73,0,0,1,32.49,5.479H153.025a2.747,2.747,0,0,1,2.739,2.739V52.488H93.141v-.438a8.207,8.207,0,0,0-8.218-8.218H29.75ZM5.479,128.753v-76.7A2.747,2.747,0,0,1,8.218,49.31h76.7a2.747,2.747,0,0,1,2.739,2.739v76.7a2.746,2.746,0,0,1-2.739,2.739H8.218a2.747,2.747,0,0,1-2.739-2.739M93.141,93.908h62.623v30.435H93.141Zm0-35.941h62.623V88.429H93.141Zm59.884,117.357H32.49a2.73,2.73,0,0,1-2.739-2.739V136.972H84.922a8.2,8.2,0,0,0,8.136-7.15h62.706v42.763a2.747,2.747,0,0,1-2.739,2.739" fill="#231f20"/>
    <path id="Path_4" data-name="Path 4" d="M16.218,59.5l3.808,11.149a1,1,0,0,0,.959.685h5.041a1.029,1.029,0,0,0,.959-.712L33.313,51.4l1.781-5.479,3.452-10.492,3.424,10.492L43.777,51.4,50.05,70.627a1.064,1.064,0,0,0,.986.712H56.05a1.039,1.039,0,0,0,.986-.685L63.611,51.4l1.89-5.479,6.876-20.135a1.007,1.007,0,0,0-.986-1.342H65.665a1.039,1.039,0,0,0-.986.685l-7.1,20.792L55.721,51.4l-2.438,7.123L50.955,51.4l-1.808-5.479L42.353,25.125a1.039,1.039,0,0,0-.986-.685H35.7a1.013,1.013,0,0,0-.986.685L27.916,45.917,26.108,51.4l-2.329,7.123L21.7,52.41,21.341,51.4l-1.863-5.479-3.26-9.561L12.383,25.125a1.066,1.066,0,0,0-.986-.685H5.644a.976.976,0,0,0-.822.411,1.034,1.034,0,0,0-.137.931Z" transform="translate(8.053 42.512)" fill="#231f20"/>
  </g>
</svg>
