<svg width="18" height="17" viewBox="0 0 18 17" fill="none" xmlns="http://www.w3.org/2000/svg">
<path d="M8.21053 0H9.78947C9.92982 0 10 0.062963 10 0.188889V16.8111C10 16.937 9.92982 17 9.78947 17H8.21053C8.07018 17 8 16.937 8 16.8111V0.188889C8 0.062963 8.07018 0 8.21053 0Z" fill="white"/>
<path d="M0.209302 8H17.7907C17.9302 8 18 8.07018 18 8.21053V9.78947C18 9.92982 17.9302 10 17.7907 10H0.209302C0.0697674 10 0 9.92982 0 9.78947V8.21053C0 8.07018 0.0697674 8 0.209302 8Z" fill="white"/>
</svg>
