<svg width="14" height="16" viewBox="0 0 14 16" fill="none" xmlns="http://www.w3.org/2000/svg">
<path d="M0.194141 6.7352C0.0624407 6.8806 -0.00705062 7.0718 0.00056609 7.26783C0.0081828 7.46386 0.0923014 7.6491 0.234886 7.78383C0.377471 7.91857 0.567171 7.99207 0.763314 7.98859C0.959457 7.98511 1.14643 7.90492 1.28414 7.7652L6.23814 2.5262V15.2502C6.23814 15.4491 6.31716 15.6399 6.45781 15.7805C6.59846 15.9212 6.78923 16.0002 6.98814 16.0002C7.18705 16.0002 7.37782 15.9212 7.51847 15.7805C7.65912 15.6399 7.73814 15.4491 7.73814 15.2502V2.5242L12.6941 7.7652C12.7612 7.83919 12.8423 7.89905 12.9327 7.94127C13.0232 7.9835 13.1211 8.00725 13.2209 8.01113C13.3206 8.015 13.4201 7.99893 13.5136 7.96385C13.6071 7.92876 13.6926 7.87537 13.7651 7.80682C13.8377 7.73826 13.8958 7.6559 13.9361 7.56458C13.9764 7.47326 13.9981 7.37481 13.9999 7.27501C14.0017 7.1752 13.9835 7.07605 13.9464 6.98335C13.9094 6.89066 13.8542 6.80629 13.7841 6.7352L7.71514 0.317202C7.5647 0.157543 7.36572 0.0520748 7.14914 0.0172022C7.04067 -0.00639038 6.92832 -0.00570732 6.82014 0.0192023C6.60703 0.0553958 6.41151 0.160003 6.26314 0.317202L0.194141 6.7352Z" fill="#273869"/>
</svg>
