<svg id="Skynet_DigitalDirect_Icon_200x200" data-name="Skynet DigitalDirect Icon 200x200" xmlns="http://www.w3.org/2000/svg" width="200" height="200" viewBox="0 0 200 200">
  <g id="Skynet_DigitalDirect_Icon_200x200-2" data-name="Skynet DigitalDirect Icon 200x200" transform="translate(1014.986 -1108.992)">
    <path id="Path_8882" data-name="Path 8882" d="M-819.471,1263.868h-12.29V1151.8a8.2,8.2,0,0,0-8.021-8.347H-990.192a8.2,8.2,0,0,0-8.02,8.347v112.07H-1010.5a3.558,3.558,0,0,0-3.485,3.626v13.343a3.555,3.555,0,0,0,3.485,3.626h191.03a3.556,3.556,0,0,0,3.485-3.626v-13.343A3.559,3.559,0,0,0-819.471,1263.868Zm-170.377-111.712h149.724v109.062H-989.848Zm166.893,125.053h-184.061v-6.087h184.061Z" transform="translate(0 -5.506)" fill="#273869"/>
    <path id="Path_8883" data-name="Path 8883" d="M-856.486,1181.8a7.382,7.382,0,0,0-7.42,7.325,7.227,7.227,0,0,0,.656,3l-17.634,17.408a7.475,7.475,0,0,0-3.04-.648,7.384,7.384,0,0,0-5.925,2.923l-12.192-3.485a7.4,7.4,0,0,0-7.387-6.632,7.381,7.381,0,0,0-7.42,7.325,7.221,7.221,0,0,0,.656,3l-17.633,17.409a7.49,7.49,0,0,0-3.041-.648,7.382,7.382,0,0,0-7.42,7.326,7.381,7.381,0,0,0,7.42,7.324,7.381,7.381,0,0,0,7.419-7.324,7.231,7.231,0,0,0-.656-3l17.633-17.409a7.48,7.48,0,0,0,3.041.648,7.475,7.475,0,0,0,5.986-3l12.122,3.464a7.392,7.392,0,0,0,7.4,6.735,7.381,7.381,0,0,0,7.419-7.325,7.216,7.216,0,0,0-.657-3l17.635-17.408a7.467,7.467,0,0,0,3.041.649,7.381,7.381,0,0,0,7.419-7.325A7.381,7.381,0,0,0-856.486,1181.8Z" transform="translate(-18.309 -15.48)" fill="#273869"/>
  </g>
  <rect id="Rectangle_10982" data-name="Rectangle 10982" width="200" height="200" fill="none"/>
</svg>
