<svg id="Skynet_Social_Icon_200x200" data-name="Skynet Social Icon 200x200" xmlns="http://www.w3.org/2000/svg" width="200" height="200" viewBox="0 0 200 200">
  <rect id="Rectangle_10982" data-name="Rectangle 10982" width="200" height="200" fill="none"/>
  <path id="Skynet_Social_Icon_200x200-2" data-name="Skynet Social Icon 200x200" d="M104.471,67.572h43.946a18.449,18.449,0,0,1,16.5,26.7l-32.286,64.572a18.449,18.449,0,0,1-16.512,10.2H79.066a18.344,18.344,0,0,1-4.474-.553L39.9,159.818m64.572-92.246V21.449A18.449,18.449,0,0,0,86.021,3h-.876A8.346,8.346,0,0,0,76.8,11.348a33.292,33.292,0,0,1-5.609,18.5L39.9,76.8v83.021m64.572-92.246H86.021M39.9,159.818H21.449A18.449,18.449,0,0,1,3,141.369V86.021A18.449,18.449,0,0,1,21.449,67.572H44.511" transform="translate(16.348 9.853)" fill="rgba(0,0,0,0)" stroke="#273869" stroke-linecap="round" stroke-linejoin="round" stroke-width="10"/>
</svg>
