<svg id="Group_3" data-name="Group 3" xmlns="http://www.w3.org/2000/svg" xmlns:xlink="http://www.w3.org/1999/xlink" width="164.667" height="136.972" viewBox="0 0 164.667 136.972">
  <defs>
    <clipPath id="clip-path">
      <rect id="Rectangle_3" data-name="Rectangle 3" width="164.667" height="136.972" fill="none"/>
    </clipPath>
  </defs>
  <g id="Group_5" data-name="Group 5" clip-path="url(#clip-path)">
    <path id="Path_5" data-name="Path 5" d="M96.182,0A68.188,68.188,0,0,0,46.57,21.34H8.218A8.242,8.242,0,0,0,0,29.558v76.7a8.242,8.242,0,0,0,8.218,8.218H45.475A68.475,68.475,0,1,0,96.182,0m62.98,67.656H103.318V5.89h.014a63.069,63.069,0,0,1,55.83,61.766M8.218,109a2.747,2.747,0,0,1-2.739-2.739v-76.7a2.747,2.747,0,0,1,2.739-2.739h76.7a2.747,2.747,0,0,1,2.739,2.739v76.7A2.747,2.747,0,0,1,84.922,109H8.218Zm87.963,22.491A62.693,62.693,0,0,1,53.2,114.481H84.922a8.225,8.225,0,0,0,8.218-8.218v-76.7a8.225,8.225,0,0,0-8.218-8.218H54.46A62.677,62.677,0,0,1,96.182,5.479c.542,0,1.115,0,1.657.055V70.4a2.739,2.739,0,0,0,2.739,2.739H159v.008a63.069,63.069,0,0,1-62.815,58.35" fill="#231f20"/>
    <path id="Path_6" data-name="Path 6" d="M47.081,31.626c0-8.794-7.561-15.4-17.56-15.4H11.3a1.011,1.011,0,0,0-1.014,1.014V62.116A1.011,1.011,0,0,0,11.3,63.129h5.1a1.035,1.035,0,0,0,1.041-1.014V46.994H29.521c10,0,17.56-6.6,17.56-15.368M28.617,40.118H17.44V23.955a4.337,4.337,0,0,1,.247-.849h10.93c6.931,0,11.232,3.26,11.232,8.52,0,5.232-4.3,8.492-11.232,8.492" transform="translate(17.899 28.231)" fill="#231f20"/>
  </g>
</svg>
