<svg width="70" height="70" viewBox="0 0 45 45" fill="none" xmlns="http://www.w3.org/2000/svg">
<path d="M22.4999 34.2375C23.4181 34.2375 24.1624 33.4932 24.1624 32.575C24.1624 31.6568 23.4181 30.9125 22.4999 30.9125C21.5817 30.9125 20.8374 31.6568 20.8374 32.575C20.8374 33.4932 21.5817 34.2375 22.4999 34.2375Z" fill="#FACEA8"/>
<path d="M22.5 28.2625C22.1685 28.2625 21.8505 28.1308 21.6161 27.8964C21.3817 27.6619 21.25 27.344 21.25 27.0125V12.0125C21.25 11.681 21.3817 11.363 21.6161 11.1286C21.8505 10.8942 22.1685 10.7625 22.5 10.7625C22.8315 10.7625 23.1495 10.8942 23.3839 11.1286C23.6183 11.363 23.75 11.681 23.75 12.0125V27.0125C23.75 27.344 23.6183 27.6619 23.3839 27.8964C23.1495 28.1308 22.8315 28.2625 22.5 28.2625Z" fill="#FACEA8"/>
<path d="M22.5 42.5C18.5444 42.5 14.6776 41.327 11.3886 39.1294C8.09962 36.9318 5.53617 33.8082 4.02242 30.1537C2.50867 26.4992 2.1126 22.4778 2.8843 18.5982C3.65601 14.7186 5.56082 11.1549 8.35787 8.35787C11.1549 5.56082 14.7186 3.65601 18.5982 2.8843C22.4778 2.1126 26.4992 2.50867 30.1537 4.02242C33.8082 5.53617 36.9318 8.09962 39.1294 11.3886C41.327 14.6776 42.5 18.5444 42.5 22.5C42.5 27.8043 40.3929 32.8914 36.6421 36.6421C32.8914 40.3929 27.8043 42.5 22.5 42.5V42.5ZM22.5 5.00001C19.0388 5.00001 15.6554 6.02637 12.7775 7.94929C9.89967 9.87222 7.65665 12.6053 6.33212 15.803C5.00758 19.0008 4.66103 22.5194 5.33627 25.9141C6.01151 29.3088 7.67822 32.427 10.1256 34.8744C12.5731 37.3218 15.6913 38.9885 19.0859 39.6638C22.4806 40.339 25.9993 39.9924 29.197 38.6679C32.3947 37.3434 35.1278 35.1003 37.0507 32.2225C38.9737 29.3446 40 25.9612 40 22.5C40 17.8587 38.1563 13.4075 34.8744 10.1256C31.5925 6.84375 27.1413 5.00001 22.5 5.00001V5.00001Z" fill="#FACEA8"/>
</svg>
