<svg width="261" height="52" viewBox="0 0 261 52" fill="none" xmlns="http://www.w3.org/2000/svg">
<path d="M36.936 35.136C36.936 30.672 35.136 27.648 33.048 25.56C30.816 23.328 27.504 22.032 26.136 21.528C24.552 20.88 20.88 19.584 18.72 18.72C16.488 17.856 13.68 16.704 13.68 13.68C13.68 10.656 16.416 9.216 20.16 9.216C23.904 9.216 28.368 11.376 31.248 14.256L36.216 6.12C32.832 2.736 26.208 0 20.448 0C14.688 0 10.152 1.584 7.344 3.96C4.464 6.336 2.16 10.08 2.16 14.832C2.16 19.512 3.888 22.392 6.048 24.408C8.208 26.496 10.728 27.432 11.952 28.008C13.608 28.728 17.352 30.024 19.512 30.816C21.672 31.608 25.344 32.904 25.344 36.288C25.344 39.6 22.464 41.4 18.72 41.4C14.904 41.4 9.36 38.88 5.76 35.136L0 43.632C4.032 47.376 10.44 51.12 17.64 51.12C22.968 51.12 27.576 49.824 31.104 47.016C34.704 44.208 36.936 39.888 36.936 35.136Z" fill="#15A9CC"/>
<path d="M66.3666 20.376L83.8626 0.575997H70.0386L54.7026 18.72V0.575997H43.1106V50.256H54.7026V33.912L58.6626 29.52L71.1186 50.256H85.0866L66.3666 20.376Z" fill="#15A9CC"/>
<path d="M116.328 0.575997L106.176 20.376L96.0238 0.575997H83.0638L100.344 30.168V50.256H112.008V30.168L129.288 0.575997H116.328Z" fill="#15A9CC"/>
<path d="M177.968 0.575997H166.592V23.112C166.592 28.368 166.808 33.984 166.808 33.984L145.496 0.575997H133.04V50.256H144.416V27.792C144.416 22.536 144.2 16.56 144.2 16.56L166.016 50.256H177.968V0.575997Z" fill="#15A9CC"/>
<path d="M219.872 40.824H198.632V29.304H218.072V20.016H198.632V9.864H219.224V0.575997H187.04V50.256H219.872V40.824Z" fill="#15A9CC"/>
<path d="M260.096 0.575997H222.8V9.792H235.616V50.256H247.28V9.792H260.096V0.575997Z" fill="#15A9CC"/>
<path d="M177.968 0.575997H166.592V23.112C166.592 28.368 166.808 33.984 166.808 33.984L145.496 0.575997H133.04V50.256H144.416V27.792C144.416 22.536 144.2 16.56 144.2 16.56L166.016 50.256H177.968V0.575997Z" fill="white"/>
<path d="M219.872 40.824H198.632V29.304H218.072V20.016H198.632V9.864H219.224V0.575997H187.04V50.256H219.872V40.824Z" fill="white"/>
<path d="M260.096 0.575997H222.8V9.792H235.616V50.256H247.28V9.792H260.096V0.575997Z" fill="white"/>
</svg>
