<svg xmlns="http://www.w3.org/2000/svg" width="45.257" height="42.082" viewBox="0 0 45.257 42.082">
  <g id="Group_16357" data-name="Group 16357" transform="translate(-220.397 -735.796)">
    <path id="Path_11365" data-name="Path 11365" d="M262.182,755.991c-.424-3.815-.609-5.532-.691-6.305a1.118,1.118,0,0,0-.723-.934l-8.2-3.095a1.146,1.146,0,0,0-.4-.073l-.264.019-7.857,3.138a1.118,1.118,0,0,0-.708.963c-.054.724-.2,2.542-.586,6.59a10.1,10.1,0,0,0,2.859,7.888,14.786,14.786,0,0,0,4.126,3.1,7.546,7.546,0,0,0,2.784.928c1.071,0,4.373-1.457,6.868-4.246A10.22,10.22,0,0,0,262.182,755.991Zm-4.079,6.821a12.126,12.126,0,0,1-5.578,3.67,6.708,6.708,0,0,1-2-.741,13.062,13.062,0,0,1-3.639-2.729,8.429,8.429,0,0,1-2.406-6.567c.329-3.482.485-5.322.558-6.234l7.14-2.851,7.636,2.88c.1.909.284,2.643.65,5.944A8.529,8.529,0,0,1,258.1,762.812Z" transform="translate(3.414 1.497)" fill="#ed6d7e"/>
    <path id="Path_11366" data-name="Path 11366" d="M250.45,757.435l-2.16-2.19-1.232,1.214,3.4,3.444,6.12-6.263-1.237-1.209Z" transform="translate(4.078 2.544)" fill="#ed6d7e"/>
    <rect id="Rectangle_678" data-name="Rectangle 678" width="18.487" height="1.729" transform="translate(228.16 742.275)" fill="#fff"/>
    <rect id="Rectangle_679" data-name="Rectangle 679" width="18.487" height="1.729" transform="translate(228.16 769.672)" fill="#fff"/>
    <path id="Path_11367" data-name="Path 11367" d="M228.163,764.329l1.527-1.562,1.526,1.562,1.237-1.209-1.554-1.59,1.554-1.59-1.237-1.209-1.526,1.562-1.527-1.562-1.237,1.209,1.554,1.59-1.554,1.59Z" transform="translate(0.999 3.508)" fill="#fff"/>
    <path id="Path_11368" data-name="Path 11368" d="M252.679,772.058v4.091H222.126V737.525h30.553v7.216l1.729-.691V735.8H220.4v42.082h34.012v-5.233A11.914,11.914,0,0,1,252.679,772.058Z" transform="translate(0)" fill="#fff"/>
    <path id="Path_11369" data-name="Path 11369" d="M244.2,746.294H227.13v1.729h15.757A4.226,4.226,0,0,1,244.2,746.294Z" transform="translate(1.03 1.605)" fill="#fff"/>
    <path id="Path_11370" data-name="Path 11370" d="M242.348,751.169H227.13V752.9h15.061C242.252,752.238,242.3,751.665,242.348,751.169Z" transform="translate(1.03 2.351)" fill="#fff"/>
  </g>
</svg>
