<svg xmlns="http://www.w3.org/2000/svg" width="23.919" height="21.112" viewBox="0 0 23.919 21.112">
  <g id="Group_16405" data-name="Group 16405" transform="translate(-33.5 -308.698)">
    <g id="Group_16262" data-name="Group 16262" transform="translate(-1749.844 -903.085)">
      <path id="Path_11231" data-name="Path 11231" d="M1799.934,1212.283v6.021l-2.873,1.147a.131.131,0,0,0-.082.112c-.028.362-.1,1.271-.292,3.286a4.617,4.617,0,0,0,1.312,3.605,6.925,6.925,0,0,0,1.935,1.453v4.488h-16.09v-20.112Z" fill="none" stroke="#16a1eb" stroke-miterlimit="10" stroke-width="1"/>
      <line id="Line_67" data-name="Line 67" x1="9.214" transform="translate(1787.282 1215.511)" fill="none" stroke="#16a1eb" stroke-miterlimit="10" stroke-width="1"/>
      <line id="Line_68" data-name="Line 68" x1="9.214" transform="translate(1787.282 1218.314)" fill="none" stroke="#16a1eb" stroke-miterlimit="10" stroke-width="1"/>
      <line id="Line_69" data-name="Line 69" x1="9.214" transform="translate(1787.282 1221.117)" fill="none" stroke="#16a1eb" stroke-miterlimit="10" stroke-width="1"/>
      <line id="Line_70" data-name="Line 70" x1="9.214" transform="translate(1787.282 1223.92)" fill="none" stroke="#16a1eb" stroke-miterlimit="10" stroke-width="1"/>
      <line id="Line_71" data-name="Line 71" x1="9.214" transform="translate(1787.282 1229.167)" fill="none" stroke="#16a1eb" stroke-miterlimit="10" stroke-width="1"/>
      <path id="Path_11232" data-name="Path 11232" d="M1803.192,1225.574c.188-2,.261-2.9.289-3.259a1.848,1.848,0,0,1,1.161-1.578l3.849-1.538a1.86,1.86,0,0,1,.679-.129l.36.009,3.353,1.265,1.033.39a1.854,1.854,0,0,1,1.187,1.539c.04.383.132,1.238.343,3.135a6.352,6.352,0,0,1-1.712,4.979c-1.257,1.4-3.225,2.547-4.386,2.547a4.882,4.882,0,0,1-1.972-.6h0a8.675,8.675,0,0,1-2.422-1.82,7.119,7.119,0,0,1-.944-1.291A6.224,6.224,0,0,1,1803.192,1225.574Z" transform="translate(-8.221 -2.887)" fill="#000b19"/>
      <path id="Path_11233" data-name="Path 11233" d="M1809.429,1232.071a6.924,6.924,0,0,1-1.935-1.453,4.617,4.617,0,0,1-1.312-3.605c.19-2.016.264-2.924.292-3.286a.131.131,0,0,1,.082-.112l2.873-1.148.968-.386a.133.133,0,0,1,.094,0l4.089,1.542a.13.13,0,0,1,.084.108c.04.384.132,1.242.344,3.144a4.673,4.673,0,0,1-1.283,3.639,6.211,6.211,0,0,1-3.1,1.973A3.489,3.489,0,0,1,1809.429,1232.071Z" transform="translate(-9.495 -4.164)" fill="none" stroke="#16a1eb" stroke-miterlimit="10" stroke-width="1"/>
      <path id="Path_11234" data-name="Path 11234" d="M1810.29,1230.095l1.385,1.4,2.743-2.808" transform="translate(-11.249 -6.979)" fill="none" stroke="#16a1eb" stroke-miterlimit="10" stroke-width="1"/>
      <line id="Line_72" data-name="Line 72" y1="2.188" x2="2.138" transform="translate(1787.473 1225.88)" fill="none" stroke="#16a1eb" stroke-miterlimit="10" stroke-width="1"/>
      <line id="Line_73" data-name="Line 73" x1="2.138" y1="2.188" transform="translate(1787.473 1225.88)" fill="none" stroke="#16a1eb" stroke-miterlimit="10" stroke-width="1"/>
    </g>
  </g>
</svg>
