<svg xmlns="http://www.w3.org/2000/svg" width="44.344" height="42.175" viewBox="0 0 44.344 42.175">
  <g id="Group_16362" data-name="Group 16362" transform="translate(-609.175 -257.747)">
    <g id="Group_16359" data-name="Group 16359" transform="translate(630.199 276.595)">
      <path id="Path_11374" data-name="Path 11374" d="M647.281,277.476a11.663,11.663,0,1,0,0,16.493A11.588,11.588,0,0,0,647.281,277.476Zm-1.226,15.268a9.846,9.846,0,0,1-6.4,2.877v-2.282h-1.733v2.247a9.913,9.913,0,0,1-8.78-9h2.029v-1.733h-2.029a9.913,9.913,0,0,1,8.78-9v2.247h1.733v-2.282a9.889,9.889,0,0,1,9.258,9.032h-2.506v1.733h2.506A9.889,9.889,0,0,1,646.055,292.744Z" transform="translate(-627.37 -274.059)" fill="#ed6d7e"/>
      <path id="Path_11375" data-name="Path 11375" d="M631.917,291.074l8.5-4.074,4.075-8.5-8.5,4.075Zm6.131-7.351a1.218,1.218,0,1,1-1.218,1.218A1.218,1.218,0,0,1,638.048,283.723Z" transform="translate(-626.663 -273.369)" fill="#ed6d7e"/>
    </g>
    <g id="Group_16361" data-name="Group 16361" transform="translate(609.175 257.747)">
      <g id="Group_16360" data-name="Group 16360">
        <path id="Path_11376" data-name="Path 11376" d="M616.6,290.665l-.777-.641a18.189,18.189,0,0,1,18.528-30.866l.929.385-4.907,8.173-.634-.176a8.753,8.753,0,0,0-8.683,14.47l.454.477Zm10.815-31.185a16.471,16.471,0,0,0-11.248,28.54l3.189-5.314a10.488,10.488,0,0,1,8.059-17.225,10.289,10.289,0,0,1,2.14.23l3.189-5.314A16.138,16.138,0,0,0,627.419,259.48Z" transform="translate(-609.175 -257.747)" fill="#fff"/>
        <path id="Path_11377" data-name="Path 11377" d="M632.792,274.091a14.664,14.664,0,0,1,1.648-.583,10.409,10.409,0,0,0-2.053-4.5l3.213-5.353a16.369,16.369,0,0,1,4.855,9.4,14.645,14.645,0,0,1,1.8.331,18.137,18.137,0,0,0-6.295-11.736l-.779-.664-4.93,8.213.425.475A8.715,8.715,0,0,1,632.792,274.091Z" transform="translate(-605.898 -257.245)" fill="#fff"/>
        <path id="Path_11378" data-name="Path 11378" d="M626.211,288.9a16.215,16.215,0,0,1-5.282-.808l3.21-5.35a10.2,10.2,0,0,0,1.568.161,14.811,14.811,0,0,1,.312-1.719h-.031a8.642,8.642,0,0,1-2.064-.261l-.622-.154-4.926,8.207.949.377a18.027,18.027,0,0,0,6.662,1.3c.285,0,.568-.009.85-.022A14.713,14.713,0,0,1,626.211,288.9Z" transform="translate(-607.744 -254.167)" fill="#fff"/>
      </g>
    </g>
  </g>
</svg>
