<svg xmlns="http://www.w3.org/2000/svg" width="22.819" height="21.753" viewBox="0 0 22.819 21.753">
  <g id="Group_16407" data-name="Group 16407" transform="translate(-34.59 -399)">
    <g id="Group_16346" data-name="Group 16346" transform="translate(-1939.167 -1408.139)">
      <g id="Group_16341" data-name="Group 16341" transform="translate(1973.757 1807.139)">
        <g id="Path_11349" data-name="Path 11349" transform="translate(-1973.757 -1807.139)" fill="none" stroke-miterlimit="10">
          <path d="M1979.352,1819.42a4.757,4.757,0,0,1,4.85-8.081l1.972-3.286a8.571,8.571,0,0,0-8.8,14.656Z" stroke="none"/>
          <path d="M 1977.116577148438 1821.201538085938 L 1978.081420898438 1819.594604492188 C 1977.11572265625 1818.53955078125 1976.575317382812 1817.166870117188 1976.575317382812 1815.716918945312 C 1976.575317382812 1812.541137695312 1979.159301757812 1809.957397460938 1982.33544921875 1809.957397460938 C 1982.819702148438 1809.957397460938 1983.295776367188 1810.01708984375 1983.75830078125 1810.135375976562 L 1984.722778320312 1808.528564453125 C 1983.953369140625 1808.269775390625 1983.154052734375 1808.139038085938 1982.33544921875 1808.139038085938 C 1978.15673828125 1808.139038085938 1974.757080078125 1811.538452148438 1974.757080078125 1815.716918945312 C 1974.757080078125 1817.797485351562 1975.623413085938 1819.779907226562 1977.116577148438 1821.201538085938 M 1977.377685546875 1822.709228515625 C 1975.189331054688 1821.15478515625 1973.757080078125 1818.60546875 1973.757080078125 1815.716918945312 C 1973.757080078125 1810.979370117188 1977.597778320312 1807.139038085938 1982.33544921875 1807.139038085938 C 1983.71728515625 1807.139038085938 1985.017700195312 1807.47314453125 1986.17431640625 1808.053466796875 L 1984.202026367188 1811.339233398438 C 1983.628295898438 1811.093872070312 1982.997436523438 1810.957397460938 1982.33544921875 1810.957397460938 C 1979.710693359375 1810.957397460938 1977.575317382812 1813.092407226562 1977.575317382812 1815.716918945312 C 1977.575317382812 1817.212280273438 1978.270263671875 1818.546875 1979.352416992188 1819.420288085938 L 1977.377685546875 1822.709228515625 Z" stroke="none" fill="#16a1eb"/>
        </g>
        <g id="Path_11350" data-name="Path 11350" transform="translate(-1979.074 -1808.96)" fill="none" stroke-miterlimit="10">
          <path d="M1992.713,1810.622l-1.978,3.3a4.753,4.753,0,0,1-4.828,8.044l-1.978,3.3a8.569,8.569,0,0,0,8.784-14.634Z" stroke="none"/>
          <path d="M 1992.964233398438 1812.14599609375 L 1991.994750976562 1813.760986328125 C 1992.903442382812 1814.803833007812 1993.411865234375 1816.140625 1993.411865234375 1817.537475585938 C 1993.411865234375 1820.713256835938 1990.828125 1823.296997070312 1987.652221679688 1823.296997070312 C 1987.21630859375 1823.296997070312 1986.784301757812 1823.247192382812 1986.360595703125 1823.148315429688 L 1985.39013671875 1824.765014648438 C 1986.123046875 1824.997802734375 1986.880249023438 1825.115356445312 1987.652221679688 1825.115356445312 C 1991.830810546875 1825.115356445312 1995.230346679688 1821.715942382812 1995.230346679688 1817.537475585938 C 1995.230346679688 1816.31103515625 1994.945190429688 1815.141235351562 1994.3828125 1814.060668945312 C 1994.015869140625 1813.35546875 1993.533935546875 1812.706787109375 1992.964233398438 1812.14599609375 M 1992.712646484375 1810.621948242188 C 1994.841796875 1812.182739257812 1996.230346679688 1814.69482421875 1996.230346679688 1817.537475585938 C 1996.230346679688 1822.274536132812 1992.389404296875 1826.115356445312 1987.652221679688 1826.115356445312 C 1986.31591796875 1826.115356445312 1985.056396484375 1825.80078125 1983.928955078125 1825.256225585938 L 1985.906982421875 1821.9609375 C 1986.447998046875 1822.17529296875 1987.035522460938 1822.296997070312 1987.652221679688 1822.296997070312 C 1990.276489257812 1822.296997070312 1992.411865234375 1820.16162109375 1992.411865234375 1817.537475585938 C 1992.411865234375 1816.08837890625 1991.758911132812 1814.791137695312 1990.734619140625 1813.917236328125 L 1992.712646484375 1810.621948242188 Z" stroke="none" fill="#16a1eb"/>
        </g>
      </g>
      <g id="Group_16345" data-name="Group 16345" transform="translate(1982.351 1814.654)">
        <path id="Path_11351" data-name="Path 11351" d="M2004.18,1825.266l.689-1.437-1.448.694a7.117,7.117,0,0,0-10,10.045l-.653,1.364,1.351-.647a7.11,7.11,0,0,0,10.063-10.018Z" transform="translate(-1991.763 -1822.883)" fill="#000b19"/>
        <g id="Group_16344" data-name="Group 16344" transform="translate(1.784 1.79)">
          <g id="Group_16343" data-name="Group 16343">
            <g id="Group_16342" data-name="Group 16342">
              <circle id="Ellipse_1559" data-name="Ellipse 1559" cx="5.329" cy="5.329" r="5.329" fill="none" stroke="#16a1eb" stroke-miterlimit="10" stroke-width="1"/>
            </g>
          </g>
          <path id="Path_11352" data-name="Path 11352" d="M2001.919,1832.922l-2.069,4.318,4.318-2.069,2.07-4.319Zm1.045,1.822a.619.619,0,1,1,.619-.619A.619.619,0,0,1,2002.964,1834.744Z" transform="translate(-1997.775 -1828.838)" fill="#16a1eb"/>
        </g>
      </g>
      <line id="Line_135" data-name="Line 135" y2="1.569" transform="translate(1989.346 1816.443)" fill="none" stroke="#16a1eb" stroke-miterlimit="10" stroke-width="1"/>
      <line id="Line_136" data-name="Line 136" y2="1.569" transform="translate(1989.346 1825.533)" fill="none" stroke="#16a1eb" stroke-miterlimit="10" stroke-width="1"/>
      <line id="Line_137" data-name="Line 137" x2="1.569" transform="translate(1984.017 1821.773)" fill="none" stroke="#16a1eb" stroke-miterlimit="10" stroke-width="1"/>
      <line id="Line_138" data-name="Line 138" x2="1.569" transform="translate(1993.106 1821.773)" fill="none" stroke="#16a1eb" stroke-miterlimit="10" stroke-width="1"/>
    </g>
  </g>
</svg>
