<svg xmlns="http://www.w3.org/2000/svg" width="42.061" height="42.063" viewBox="0 0 42.061 42.063">
  <g id="Group_16370" data-name="Group 16370" transform="translate(-612.859 -577.073)">
    <g id="Group_16367" data-name="Group 16367" transform="translate(612.859 577.073)">
      <g id="Group_16366" data-name="Group 16366">
        <g id="Group_16365" data-name="Group 16365">
          <path id="Path_11384" data-name="Path 11384" d="M630.125,605.393l-2.187-3.673a10.533,10.533,0,0,1-1.948-.008l-2.188,3.656-4.6-1.926,1.04-4.15a10.574,10.574,0,0,1-1.4-1.426l-4.09,1.092-1.893-4.622,3.673-2.176c-.027-.3-.041-.616-.041-.927a10.673,10.673,0,0,1,.056-1.1l-3.667-2.109,1.935-4.626,4.1,1.112a10.512,10.512,0,0,1,1.459-1.442l-1.082-4.106,4.632-1.894,2.151,3.675a10.8,10.8,0,0,1,1.992.009l2.169-3.66,4.614,1.933-1.092,4.109a10.606,10.606,0,0,1,1.428,1.443l4.1-1.071,1.89,4.617-3.669,2.193c.026.3.041.61.041.912,0,.35-.018.7-.053,1.05l3.661,2.163-1.931,4.6L635.088,598a10.5,10.5,0,0,1-1.411,1.389l1.061,4.113Zm-1.291-5.53,2.01,3.376,1.856-.76-.977-3.779.477-.343a8.761,8.761,0,0,0,1.874-1.842l.344-.457,3.8.963.778-1.857-3.363-1.986.093-.578a8.6,8.6,0,0,0,.108-1.365,8.356,8.356,0,0,0-.093-1.238l-.084-.57,3.372-2.014-.76-1.856-3.77.982-.345-.477a8.865,8.865,0,0,0-1.887-1.909l-.466-.348,1-3.768-1.851-.776-1.993,3.363-.578-.093a8.812,8.812,0,0,0-2.639-.014l-.574.085-1.973-3.373-1.856.758.994,3.772-.479.345a8.737,8.737,0,0,0-1.921,1.9l-.35.474-3.76-1.02-.769,1.836,3.283,1.889-.011.646a8.723,8.723,0,0,0-.021,2.658l.087.573-3.376,2,.758,1.848,3.754-1,.347.482a8.781,8.781,0,0,0,1.857,1.891l.456.343-.955,3.807,1.862.781,1.961-3.276.624.009a8.644,8.644,0,0,0,2.585.01Z" transform="translate(-612.859 -577.073)" fill="#fff"/>
        </g>
        <path id="Path_11385" data-name="Path 11385" d="M625.878,595.312a5.218,5.218,0,1,1,3.691-1.527A5.2,5.2,0,0,1,625.878,595.312Zm0-8.721a3.5,3.5,0,1,0,2.475,1.027A3.48,3.48,0,0,0,625.879,586.591Z" transform="translate(-611.718 -575.932)" fill="#fff"/>
      </g>
    </g>
    <g id="Group_16369" data-name="Group 16369" transform="translate(634.003 598.221)">
      <g id="Group_16368" data-name="Group 16368">
        <path id="Path_11386" data-name="Path 11386" d="M639.85,616.437l-.492-3.076a7.639,7.639,0,0,1-1.075-.441l-2.424,1.9-2.843-2.8,1.833-2.507c-.08-.158-.156-.32-.225-.483-.086-.2-.164-.4-.23-.605l-3.058-.362-.031-4.015,3.062-.426a7.73,7.73,0,0,1,.452-1.108l-1.9-2.438,2.81-2.85,2.494,1.844c.156-.08.319-.156.486-.229.2-.083.387-.157.578-.22l.406-3.07,4-.028.445,3.062a7.981,7.981,0,0,1,1.095.446l2.445-1.89,2.839,2.8-1.831,2.519c.079.152.152.309.221.469.081.193.156.385.22.579l3.07.4.026,3.989-3.07.483a7.807,7.807,0,0,1-.436,1.063l1.889,2.45-2.8,2.838-2.513-1.831c-.155.079-.313.152-.478.224-.182.077-.369.149-.562.214l-.418,3.075Zm-1.714-5.587.509.307a6.026,6.026,0,0,0,1.681.695l.554.137.436,2.72,1.017-.008.366-2.677.507-.17a6.552,6.552,0,0,0,.935-.315,5.268,5.268,0,0,0,.754-.392l.494-.307,2.234,1.628.7-.716-1.674-2.171.3-.5a5.989,5.989,0,0,0,.684-1.666l.136-.557,2.718-.428-.007-1.01-2.722-.354-.141-.572a5.857,5.857,0,0,0-.3-.887,5.681,5.681,0,0,0-.39-.752l-.3-.491,1.623-2.236-.715-.706-2.165,1.675-.5-.3a6.045,6.045,0,0,0-1.7-.695l-.566-.136-.394-2.71-1,.007-.359,2.725-.571.14a5.835,5.835,0,0,0-.884.3,6.314,6.314,0,0,0-.782.4l-.493.3-2.208-1.631-.7.714,1.682,2.16-.3.507a5.91,5.91,0,0,0-.7,1.715l-.135.575-2.712.378.008.99,2.661.315.174.518a6.126,6.126,0,0,0,.328.988,5.271,5.271,0,0,0,.394.76l.308.5-1.63,2.226.71.7Z" transform="translate(-631.304 -595.522)" fill="#ed6d7e"/>
      </g>
      <path id="Path_11387" data-name="Path 11387" d="M640.871,608.566a3.5,3.5,0,0,1-1.292-.251h0a3.476,3.476,0,1,1,4.49-4.593,3.482,3.482,0,0,1-3.2,4.844Zm-.651-1.848a1.756,1.756,0,1,0,1.307-3.26,1.756,1.756,0,1,0-1.307,3.26Z" transform="translate(-630.412 -594.631)" fill="#ed6d7e"/>
    </g>
  </g>
</svg>
