<svg xmlns="http://www.w3.org/2000/svg" width="21.307" height="21.307" viewBox="0 0 21.307 21.307">
  <g id="Group_16377" data-name="Group 16377" transform="translate(-538.277 -592.359)">
    <g id="Group_16321" data-name="Group 16321" transform="translate(538.903 592.986)">
      <g id="Group_16320" data-name="Group 16320">
        <path id="Path_11306" data-name="Path 11306" d="M550.287,600.321l1.762,1.041-.681,1.625-1.991-.506a4.844,4.844,0,0,1-1.035,1.018l.511,1.98-1.627.666-1.053-1.768a4.62,4.62,0,0,1-.69.051,4.9,4.9,0,0,1-.741-.056h0l-1.053,1.759-1.625-.68.5-2a4.874,4.874,0,0,1-1.024-1.045l-1.968.526-.667-1.627,1.768-1.048a4.666,4.666,0,0,1-.051-.7,4.6,4.6,0,0,1,.063-.778v0l-1.765-1.015.68-1.625,1.972.536a4.8,4.8,0,0,1,1.061-1.05l-.521-1.977,1.631-.667,1.035,1.768a4.865,4.865,0,0,1,.707-.051,4.681,4.681,0,0,1,.752.059L547.28,593l1.625.681-.526,1.977a4.876,4.876,0,0,1,1.041,1.053l1.976-.515.666,1.628L550.3,598.88a4.686,4.686,0,0,1,.051.686A4.794,4.794,0,0,1,550.287,600.321Z" transform="translate(-538.903 -592.986)" fill="none" stroke="#16a1eb" stroke-miterlimit="10" stroke-width="1"/>
      </g>
      <path id="Path_11307" data-name="Path 11307" d="M547.154,604.339a2.193,2.193,0,1,0,0-3.1A2.193,2.193,0,0,0,547.154,604.339Z" transform="translate(-542.125 -596.208)" fill="none" stroke="#16a1eb" stroke-miterlimit="10" stroke-width="1"/>
    </g>
    <g id="Group_16323" data-name="Group 16323" transform="translate(549.43 603.514)">
      <g id="Group_16322" data-name="Group 16322" transform="translate(0)">
        <path id="Path_11308" data-name="Path 11308" d="M565.356,615.221l1.449.19.009,1.257-1.449.228a3.457,3.457,0,0,1-.394.959l.892,1.156-.881.895-1.188-.867a3.212,3.212,0,0,1-.439.228,3.411,3.411,0,0,1-.5.17h0l-.2,1.451-1.258.009-.232-1.451a3.475,3.475,0,0,1-.966-.4l-1.146.9-.894-.881.867-1.185a3.417,3.417,0,0,1-.406-.971v0l-1.445-.171-.009-1.259,1.445-.2a3.44,3.44,0,0,1,.4-.988l-.9-1.151.883-.9,1.177.87a3.612,3.612,0,0,1,.449-.232,3.39,3.39,0,0,1,.511-.171l.192-1.45,1.257-.009.21,1.445a3.492,3.492,0,0,1,.978.4l1.155-.893.894.882-.865,1.19a3.352,3.352,0,0,1,.4.949Z" transform="translate(-557.164 -611.248)" fill="none" stroke="#16a1eb" stroke-miterlimit="10" stroke-width="1"/>
      </g>
      <path id="Path_11309" data-name="Path 11309" d="M564.078,619.872a1.316,1.316,0,1,0-.732-1.712A1.316,1.316,0,0,0,564.078,619.872Z" transform="translate(-559.742 -613.826)" fill="none" stroke="#16a1eb" stroke-miterlimit="10" stroke-width="1"/>
    </g>
  </g>
</svg>
