<svg xmlns="http://www.w3.org/2000/svg" width="378.284" height="67.721" viewBox="0 0 378.284 67.721">
  <g id="Skynet_logo" data-name="Skynet logo" transform="translate(-310.622 -1334.971)">
    <g id="Group_14384" data-name="Group 14384" transform="translate(310.622 1334.971)">
      <g id="Group_14382" data-name="Group 14382" transform="translate(0 0)">
        <path id="Path_8827" data-name="Path 8827" d="M321.863,1400.53a30.7,30.7,0,0,1-11.241-5.74l4.233-9.5a33.272,33.272,0,0,0,9.922,5.22,36.144,36.144,0,0,0,11.806,2.02q7.336,0,10.96-2.349a7.124,7.124,0,0,0,3.62-6.21,6,6,0,0,0-2.024-4.654,14.2,14.2,0,0,0-5.123-2.87q-3.1-1.035-8.467-2.349a98.508,98.508,0,0,1-12.178-3.576,20.038,20.038,0,0,1-8-5.6q-3.338-3.812-3.34-10.3A17.6,17.6,0,0,1,315,1344.7a20.059,20.059,0,0,1,8.936-7.1,36.21,36.21,0,0,1,14.627-2.633,47.276,47.276,0,0,1,11.85,1.5,32.861,32.861,0,0,1,10.066,4.326l-3.856,9.5a38.2,38.2,0,0,0-9.032-3.857,33.787,33.787,0,0,0-9.124-1.314q-7.24,0-10.767,2.445a7.54,7.54,0,0,0-3.528,6.49,5.872,5.872,0,0,0,2.021,4.61,14.639,14.639,0,0,0,5.127,2.818q3.1,1.041,8.467,2.354a89.388,89.388,0,0,1,12.038,3.528,20.594,20.594,0,0,1,8.042,5.6q3.338,3.763,3.34,10.157a17.344,17.344,0,0,1-2.963,9.878,20.133,20.133,0,0,1-8.984,7.051,36.526,36.526,0,0,1-14.672,2.634A50.335,50.335,0,0,1,321.863,1400.53Z" transform="translate(-310.622 -1334.971)" fill="#fff"/>
        <path id="Path_8828" data-name="Path 8828" d="M418.008,1374.558l-10.439,10.724v16.837H395.342v-65.845h12.227v33.771l32.544-33.771h13.734l-27.653,29.441,29.344,36.4h-14.3Z" transform="translate(-334.389 -1335.336)" fill="#fff"/>
        <path id="Path_8829" data-name="Path 8829" d="M371.224,1445.64v65.845H361.158L324.85,1466.9v44.586H312.72V1445.64h10.062l36.308,44.585V1445.64Z" transform="translate(-113.521 -1443.764)" fill="#fff"/>
        <path id="Path_8830" data-name="Path 8830" d="M454.922,1501.231v10.254h-49.38V1445.64H453.6v10.254H417.769v17.117h31.79v10.066h-31.79v18.153Z" transform="translate(-139.56 -1443.764)" fill="#fff"/>
        <path id="Path_8831" data-name="Path 8831" d="M505.8,1455.987H483.977V1445.64h55.87v10.347h-21.82v55.5H505.8Z" transform="translate(-161.564 -1443.764)" fill="#fff"/>
      </g>
      <g id="Group_14383" data-name="Group 14383" transform="translate(124.83 0.941)">
        <path id="Path_8832" data-name="Path 8832" d="M512.814,1364.968l-28.689-28.69h28.689Z" transform="translate(-484.124 -1336.279)" fill="#fff"/>
        <path id="Path_8833" data-name="Path 8833" d="M550.571,1336.278,524,1379.261v22.444l.236-.383v.8h12.231v-20.581l27.978-45.26Z" transform="translate(-495.311 -1336.278)" fill="#fff"/>
      </g>
    </g>
  </g>
</svg>
