<svg xmlns="http://www.w3.org/2000/svg" width="173.922" height="130.438" viewBox="0 0 173.922 130.438">
  <g id="Group_16430" data-name="Group 16430" transform="translate(-310.622 -1334.971)">
    <g id="Group_14384" data-name="Group 14384" transform="translate(310.622 1334.971)">
      <g id="Group_14382" data-name="Group 14382" transform="translate(0 0)">
        <path id="Path_8827" data-name="Path 8827" d="M320.7,1393.756a27.532,27.532,0,0,1-10.079-5.147l3.8-8.516a29.828,29.828,0,0,0,8.9,4.681,32.409,32.409,0,0,0,10.586,1.811q6.578,0,9.828-2.105a6.389,6.389,0,0,0,3.246-5.569,5.384,5.384,0,0,0-1.815-4.173,12.726,12.726,0,0,0-4.594-2.573q-2.782-.928-7.592-2.106a88.3,88.3,0,0,1-10.92-3.206,17.968,17.968,0,0,1-7.171-5.019q-2.993-3.417-2.995-9.234a15.782,15.782,0,0,1,2.657-8.9,17.985,17.985,0,0,1,8.012-6.366,32.472,32.472,0,0,1,13.116-2.361,42.411,42.411,0,0,1,10.626,1.348,29.5,29.5,0,0,1,9.026,3.879l-3.458,8.519a34.252,34.252,0,0,0-8.1-3.458,30.281,30.281,0,0,0-8.181-1.178q-6.492,0-9.655,2.192a6.761,6.761,0,0,0-3.164,5.82,5.266,5.266,0,0,0,1.812,4.134,13.14,13.14,0,0,0,4.6,2.526q2.782.933,7.592,2.11a80.261,80.261,0,0,1,10.794,3.163,18.466,18.466,0,0,1,7.211,5.018q2.993,3.374,2.995,9.108a15.551,15.551,0,0,1-2.657,8.857,18.055,18.055,0,0,1-8.056,6.322,32.754,32.754,0,0,1-13.156,2.362A45.14,45.14,0,0,1,320.7,1393.756Z" transform="translate(-310.622 -1334.971)"/>
        <path id="Path_8828" data-name="Path 8828" d="M415.666,1370.6l-9.361,9.616v15.1H395.342v-59.041h10.963v30.281l29.181-30.281H447.8l-24.8,26.4,26.312,32.643H436.5Z" transform="translate(-340.687 -1335.433)"/>
        <path id="Path_8829" data-name="Path 8829" d="M365.179,1445.641v59.041h-9.026L323.6,1464.7v39.979H312.72v-59.041h9.022l32.556,39.978v-39.978Z" transform="translate(-311.366 -1374.245)"/>
        <path id="Path_8830" data-name="Path 8830" d="M449.819,1495.487v9.195H405.542v-59.041h43.095v9.195H416.505v15.348h28.5v9.026h-28.5v16.277Z" transform="translate(-344.307 -1374.245)"/>
        <path id="Path_8831" data-name="Path 8831" d="M503.542,1454.918H483.977v-9.277h50.1v9.277H514.509v49.764H503.542Z" transform="translate(-372.141 -1374.245)"/>
      </g>
      <g id="Group_14383" data-name="Group 14383" transform="translate(111.931 0.844)">
        <path id="Path_8832" data-name="Path 8832" d="M509.849,1362l-25.725-25.725h25.725Z" transform="translate(-484.125 -1336.279)"/>
        <path id="Path_8833" data-name="Path 8833" d="M547.826,1336.279,524,1374.82v20.125l.212-.343v.714H535.18v-18.455l25.087-40.583Z" transform="translate(-498.275 -1336.279)"/>
      </g>
    </g>
  </g>
</svg>
